<?xml version="1.0" standalone="no"?>
<!DOCTYPE svg PUBLIC "-//W3C//DTD SVG 1.1//EN" "http://www.w3.org/Graphics/SVG/1.1/DTD/svg11.dtd" >
<svg xmlns="http://www.w3.org/2000/svg">
<metadata></metadata>
<defs>
<font id="graviolaregular" horiz-adv-x="1404" >
<font-face units-per-em="2048" ascent="1536" descent="-512" />
<missing-glyph horiz-adv-x="497" />
<glyph unicode="&#xfb03;" horiz-adv-x="1820" d="M1575 1331q-140 72 -303 72q-248 0 -248 -205v-166h629v-1032h-187v893h-442v-893h-184v893h-445v-893h-186v893h-150v113l150 20v160q0 159 105 250.5t290 91.5q195 0 338 -76q117 102 336 102q154 0 264 -36q38 -13 51 -30.5t13 -51.5q0 -54 -31 -105zM840 1032v180 q0 64 18 117q-100 53 -242 53q-108 0 -164.5 -53.5t-56.5 -157.5v-139h445z" />
<glyph unicode="&#xfb04;" horiz-adv-x="1847" d="M1681 0h-186v1352q-102 51 -240 51q-114 0 -172.5 -52.5t-58.5 -152.5v-166h297v-139h-297v-893h-184v893h-445v-893h-186v893h-150v113l150 20v160q0 159 105 250.5t290 91.5q189 0 334 -74q114 100 322 100q211 0 421 -98v-1456zM840 1032v180q0 64 18 117 q-100 53 -242 53q-108 0 -164.5 -53.5t-56.5 -157.5v-139h445z" />
<glyph horiz-adv-x="0" />
<glyph horiz-adv-x="682" />
<glyph horiz-adv-x="0" />
<glyph horiz-adv-x="0" />
<glyph unicode=" "  horiz-adv-x="497" />
<glyph unicode="&#x09;" horiz-adv-x="497" />
<glyph unicode="&#xa0;" horiz-adv-x="497" />
<glyph unicode="!" horiz-adv-x="561" d="M281 -14q-66 0 -89.5 29t-23.5 102q0 69 24 100t89 31t89.5 -29.5t24.5 -101.5t-24.5 -101.5t-89.5 -29.5zM348 469h-135q-33 598 -33 1006h201q0 -93 -2 -191.5t-6 -218t-7 -190t-9.5 -216.5t-8.5 -190z" />
<glyph unicode="&#x22;" horiz-adv-x="751" d="M295 1010h-127l-25 506h176zM584 1010h-127l-25 506h174z" />
<glyph unicode="#" horiz-adv-x="1314" d="M129 987v146h246l39 342h161l-38 -342h323l39 342h164l-39 -342h231v-146h-247l-56 -500h232v-145h-248l-37 -342h-164l37 342h-323l-37 -342h-164l39 342h-228v145h244l55 500h-229zM520 987l-55 -500h323l56 500h-324z" />
<glyph unicode="$" horiz-adv-x="1193" d="M690 -225h-188v207q-159 11 -275 57q-49 18 -66.5 40t-17.5 58q0 70 41 129q197 -116 381 -116q147 0 223 65t76 178q0 107 -73.5 173t-245.5 110q-201 52 -302.5 151.5t-101.5 255.5q0 154 92.5 265t266.5 139v213h190v-207q99 -7 221 -41q86 -23 86 -90q0 -68 -41 -129 q-165 92 -342 92q-141 0 -206.5 -61.5t-65.5 -163.5q0 -94 66 -150.5t229 -97.5q219 -55 326.5 -161.5t107.5 -284.5q0 -160 -102 -273.5t-279 -142.5v-215z" />
<glyph unicode="%" horiz-adv-x="1574" d="M379 864q84 0 136 68.5t52 185.5q0 118 -51.5 186t-136.5 68t-137 -68t-52 -186q0 -117 52.5 -185.5t136.5 -68.5zM379 743q-147 0 -242.5 99t-95.5 276t95.5 277t242.5 100q145 0 240.5 -100t95.5 -277t-95 -276t-241 -99zM1212 100q84 0 136.5 68.5t52.5 185.5 q0 118 -52 187t-137 69q-84 0 -136 -69t-52 -187q0 -117 52 -185.5t136 -68.5zM1212 -20q-147 0 -242.5 99t-95.5 275q0 177 95.5 277t242.5 100q145 0 240.5 -100t95.5 -277q0 -175 -95.5 -274.5t-240.5 -99.5zM365 0h-156l1020 1475h160z" />
<glyph unicode="&#x26;" horiz-adv-x="1425" d="M965 987h174q98 -132 98 -360q0 -197 -94 -357q89 -67 211 -143l-90 -147q-113 68 -230 159q-172 -159 -442 -159q-115 0 -212 26.5t-169 77.5t-112 131t-40 180q0 161 79 267.5t218 162.5q-78 104 -113.5 184t-35.5 162q0 68 25 124.5t76.5 102.5t142 71.5t211.5 25.5 q184 0 323 -49q48 -16 65 -38.5t17 -57.5q0 -66 -41 -127q-170 102 -358 102q-252 0 -252 -190q0 -84 73 -199q182 -275 523 -561q55 116 55 266q0 210 -102 346zM909 242q-271 231 -467 471q-182 -102 -182 -303q0 -129 94 -200t246 -71q191 0 309 103z" />
<glyph unicode="'" horiz-adv-x="471" d="M303 1010h-135l-25 506h183z" />
<glyph unicode="(" horiz-adv-x="645" d="M596 1516q-148 -149 -225.5 -378t-77.5 -515t77.5 -515t225.5 -378q-37 -56 -100 -56q-49 0 -109 72q-291 343 -291 877q0 533 291 876q60 72 109 72q64 0 100 -55z" />
<glyph unicode=")" horiz-adv-x="645" d="M51 1516q34 55 99 55q49 0 110 -70q289 -340 289 -878q0 -539 -289 -879q-61 -70 -110 -70q-65 0 -99 56q147 149 224 377.5t77 515.5t-77 515.5t-224 377.5z" />
<glyph unicode="*" horiz-adv-x="927" d="M141 1323l289 -129l-37 268q-4 32 16 50t54 18q33 0 69 -19l-36 -319l245 123q15 6 27 6q29 0 47.5 -28.5t18.5 -67.5q0 -14 -3 -29l-315 -63l193 -197q18 -18 18 -39q0 -29 -31 -53t-73 -29l-158 277l-127 -240q-17 -33 -47 -33q-26 0 -52 22t-40 54l211 235l-265 48 q-49 8 -49 57t45 88z" />
<glyph unicode="+" horiz-adv-x="1026" d="M590 221h-154v359h-340v141h340v358h154v-358h340v-141h-340v-359z" />
<glyph unicode="," horiz-adv-x="514" d="M188 -334l-100 53q82 157 82 310q0 87 -29 172q71 49 148 49q53 0 75.5 -26t22.5 -85q0 -99 -51 -226.5t-148 -246.5z" />
<glyph unicode="-" horiz-adv-x="745" d="M96 483v152h551v-152h-551z" />
<glyph unicode="." horiz-adv-x="514" d="M256 -14q-73 0 -102 31t-29 108t29 110t102 33q72 0 101.5 -32t29.5 -111q0 -76 -29.5 -107.5t-101.5 -31.5z" />
<glyph unicode="/" horiz-adv-x="712" d="M233 -61h-167l440 1597h168z" />
<glyph unicode="0" horiz-adv-x="1312" d="M655 143q56 0 101 15.5t88 56t71.5 106t46 171t17.5 245.5t-17.5 245.5t-46 171t-71.5 106t-88 56t-101 15.5t-101.5 -15.5t-88 -56t-71 -106t-45.5 -171t-17 -245.5t17 -245.5t45.5 -171t71 -106t88 -56t101.5 -15.5zM655 -20q-522 0 -522 757q0 758 522 758 q525 0 525 -758q0 -757 -525 -757z" />
<glyph unicode="1" horiz-adv-x="948" d="M682 0h-197v1325q-180 -23 -374 -139q-43 51 -43 127q0 59 67 88q192 82 393 82q85 0 154 -15v-1468z" />
<glyph unicode="2" horiz-adv-x="1140" d="M1022 0h-895l-18 113q369 385 536.5 612t167.5 377q0 109 -63 166t-203 57q-175 0 -371 -115q-39 66 -39 129q0 34 17.5 56.5t66.5 40.5q153 59 342 59q227 0 338 -98.5t111 -266.5q0 -78 -29 -162.5t-79 -168t-136.5 -190t-180 -207.5t-231.5 -242h666v-160z" />
<glyph unicode="3" horiz-adv-x="1155" d="M150 250q180 -107 356 -107q164 0 261 70.5t97 204.5q0 147 -114 219t-312 72h-82l-10 131h31q219 0 326.5 79.5t107.5 198.5q0 213 -274 213q-172 0 -349 -106q-41 61 -41 118q0 71 82 99q151 53 322 53q114 0 201 -27t139 -75t78 -109.5t26 -134.5q0 -121 -74.5 -219.5 t-193.5 -138.5q144 -33 236 -130t92 -251q0 -104 -42.5 -187.5t-116.5 -135.5t-168.5 -79.5t-203.5 -27.5q-188 0 -344 57q-71 26 -71 94q0 58 41 119z" />
<glyph unicode="4" horiz-adv-x="1202" d="M938 0h-188v328h-652l-39 102q42 190 157.5 398.5t270 380.5t310.5 266h141v-986h190v-161h-190v-328zM750 1257q-176 -140 -319 -351.5t-202 -416.5h521v768z" />
<glyph unicode="5" horiz-adv-x="1155" d="M150 250q181 -107 360 -107q160 0 259 79.5t99 242.5q0 105 -50 175.5t-125.5 100t-170.5 29.5q-151 0 -299 -49l-55 35l45 719h754v-160h-592l-27 -430q127 30 225 30q103 0 190.5 -28t154.5 -83t105 -142.5t38 -198.5q0 -119 -41 -212t-114 -151.5t-171 -89t-215 -30.5 q-184 0 -340 57q-71 26 -71 94q0 58 41 119z" />
<glyph unicode="6" horiz-adv-x="1243" d="M125 676q0 167 33.5 304t90.5 231.5t136 159t168 94.5t188 30q55 0 106.5 -6t101.5 -20t80 -41t30 -64q0 -67 -43 -113q-117 80 -268 80q-70 0 -131.5 -21t-114.5 -67.5t-91 -116.5t-60 -174t-23 -233q55 91 159 149t218 58q90 0 168 -28t139 -82t96 -142.5t35 -200.5 q0 -224 -138 -358.5t-350 -134.5q-113 0 -207.5 42t-167.5 125t-114 218.5t-41 310.5zM950 469q0 162 -78.5 238.5t-205.5 76.5q-177 0 -295 -163q-35 -49 -35 -105q0 -44 11 -93.5t36.5 -100.5t61.5 -91t91 -66t121 -26q130 0 211.5 92t81.5 238z" />
<glyph unicode="7" horiz-adv-x="1091" d="M68 1307v168h958l21 -113q-223 -238 -371.5 -601.5t-169.5 -760.5h-205q22 361 159.5 710t352.5 597h-745z" />
<glyph unicode="8" horiz-adv-x="1263" d="M633 1495q210 0 339.5 -99t129.5 -276q0 -122 -78 -214.5t-197 -127.5q137 -35 230.5 -140.5t93.5 -246.5q0 -196 -139 -305t-379 -109t-380 109t-140 305q0 141 93 246.5t230 140.5q-117 35 -193.5 127.5t-76.5 214.5q0 178 128 276.5t339 98.5zM950 403 q0 126 -93.5 209.5t-223.5 83.5q-132 0 -226 -83t-94 -210q0 -135 86.5 -206.5t233.5 -71.5q148 0 232.5 71.5t84.5 206.5zM352 1110q0 -109 74 -182.5t207 -73.5q132 0 207 74t75 182q0 117 -74.5 178.5t-207.5 61.5q-134 0 -207.5 -61.5t-73.5 -178.5z" />
<glyph unicode="9" horiz-adv-x="1243" d="M1116 799q0 -168 -33.5 -305.5t-91 -231.5t-136.5 -158.5t-167.5 -94t-185.5 -29.5q-56 0 -107.5 6t-101 20t-79.5 40.5t-30 62.5q0 68 43 114q117 -80 267 -80q71 0 132.5 21t114.5 68.5t91 118t59.5 174.5t21.5 233q-52 -89 -157 -149t-217 -60q-90 0 -168.5 28 t-139.5 82t-96 142t-35 200q0 224 138 359t350 135q113 0 207.5 -42t167 -125t113 -218t40.5 -311zM293 1006q0 -162 78 -239t204 -77q180 0 295 164q21 29 29 51t8 53q0 44 -11 93.5t-36.5 100.5t-61.5 91t-91 66t-121 26q-130 0 -211.5 -91.5t-81.5 -237.5z" />
<glyph unicode=":" horiz-adv-x="460" d="M229 782q-65 0 -88.5 29.5t-23.5 101.5q0 71 23.5 102.5t88.5 31.5t90 -31t25 -103q0 -71 -25 -101t-90 -30zM229 -14q-66 0 -89 29t-23 102q0 70 23.5 100.5t88.5 30.5t90 -29.5t25 -101.5t-25 -101.5t-90 -29.5z" />
<glyph unicode=";" horiz-adv-x="452" d="M221 782q-65 0 -88.5 29.5t-23.5 101.5q0 71 23.5 102.5t88.5 31.5t90 -31t25 -103q0 -71 -25 -101t-90 -30zM154 -334l-101 53q82 157 82 310q0 87 -29 172q71 49 148 49q53 0 75.5 -26t22.5 -85q0 -100 -50.5 -227t-147.5 -246z" />
<glyph unicode="&#x3c;" horiz-adv-x="919" d="M98 563v144l715 366v-166l-553 -272l553 -273v-165z" />
<glyph unicode="=" horiz-adv-x="1028" d="M920 768h-803v139h803v-139zM920 393h-803v139h803v-139z" />
<glyph unicode="&#x3e;" horiz-adv-x="919" d="M821 707v-144l-715 -366v165l551 273l-551 272v166z" />
<glyph unicode="?" horiz-adv-x="870" d="M365 -14q-64 0 -87.5 29t-23.5 102q0 69 24 100t87 31q65 0 89.5 -29.5t24.5 -101.5t-24.5 -101.5t-89.5 -29.5zM72 1233q-41 61 -41 129q0 33 19 55t67 35q145 43 315 43q196 0 300 -92t104 -234q0 -105 -54.5 -191.5t-179.5 -180.5q-111 -83 -151.5 -151.5 t-40.5 -143.5q0 -24 4 -64h-131q-21 89 -21 148q0 87 42.5 165.5t144.5 157.5q115 89 155.5 139t40.5 115q0 73 -52.5 117.5t-164.5 44.5q-180 0 -356 -92z" />
<glyph unicode="@" horiz-adv-x="1810" d="M1262 160q-92 0 -145.5 48t-61.5 130q-53 -77 -132 -127.5t-165 -50.5q-125 0 -197 77t-72 224q0 136 41.5 248.5t112.5 186.5t166 114.5t203 40.5q162 0 291 -78l-76 -508q-6 -49 -6 -84q0 -61 20.5 -87t65.5 -26q78 0 141.5 77.5t96 193t32.5 237.5q0 232 -149 359 t-422 127q-112 0 -222 -32t-209.5 -100t-175.5 -163t-121 -231.5t-45 -295.5q0 -129 45 -228t123.5 -157.5t176.5 -88t213 -29.5q117 0 251 32l25 -116q-142 -37 -289 -37q-112 0 -212 22.5t-187 72t-150.5 121.5t-100 177t-36.5 233q0 179 53 333.5t143 264.5t209 189 t252.5 117t272.5 38q206 0 364 -72t246 -209t88 -321q0 -115 -28.5 -223t-83 -198.5t-144.5 -145.5t-202 -55zM680 494q0 -96 38 -139.5t103 -43.5q94 0 172 111q46 62 58 145l51 338q-42 17 -96 17q-130 0 -228 -116.5t-98 -311.5z" />
<glyph unicode="A" horiz-adv-x="1320" d="M285 0h-203q28 447 159.5 846t331.5 629h177q199 -232 331.5 -631.5t157.5 -843.5h-203q-11 175 -37 367h-677q-30 -224 -37 -367zM969 535q-95 467 -307 782q-215 -315 -310 -782h617z" />
<glyph unicode="B" horiz-adv-x="1271" d="M180 0v1475h451q223 0 347 -92.5t124 -272.5q0 -123 -71.5 -208.5t-186.5 -119.5q144 -26 240 -126t96 -255q0 -195 -137.5 -298t-378.5 -103h-484zM375 692v-532h287q317 0 317 256q0 132 -89.5 204t-242.5 72h-272zM375 1315v-481h229q143 0 222 68.5t79 178.5 q0 125 -74.5 179.5t-220.5 54.5h-235z" />
<glyph unicode="C" horiz-adv-x="1155" d="M92 739q0 194 44 340.5t125 236.5t190 134.5t245 44.5q154 0 301 -41q48 -13 67 -35t19 -55q0 -58 -39 -121q-166 90 -342 90q-194 0 -302.5 -145.5t-108.5 -448.5q0 -302 109 -450t302 -148q185 0 361 95q39 -59 39 -119q0 -34 -18.5 -55.5t-67.5 -34.5 q-158 -47 -318 -47q-284 0 -445 188.5t-161 570.5z" />
<glyph unicode="D" horiz-adv-x="1390" d="M1298 737q0 -198 -45 -340.5t-133 -229t-209.5 -127t-283.5 -40.5h-447v1475h447q162 0 283.5 -40.5t209.5 -127.5t133 -229.5t45 -340.5zM375 158h250q117 0 203.5 31t148 99t92.5 180t31 269q0 309 -119 444.5t-356 135.5h-250v-1159z" />
<glyph unicode="E" horiz-adv-x="1120" d="M180 0v1475h854v-160h-659v-469h520v-160h-520v-526h674v-160h-869z" />
<glyph unicode="F" horiz-adv-x="1093" d="M180 0v1475h848v-160h-653v-498h514v-160h-514v-657h-195z" />
<glyph unicode="G" horiz-adv-x="1316" d="M1110 1229q-191 104 -389 104q-430 0 -430 -594q0 -598 409 -598q155 0 242.5 91.5t87.5 265.5q0 163 -39 329h197q37 -161 37 -335q0 -244 -138.5 -378t-384.5 -134q-293 0 -451.5 187t-158.5 572q0 379 164 567.5t453 188.5q216 0 376 -57q37 -12 50.5 -30t13.5 -50 q0 -66 -39 -129z" />
<glyph unicode="H" horiz-adv-x="1400" d="M1221 0h-195v686h-651v-686h-195v1475h195v-621h651v621h195v-1475z" />
<glyph unicode="I" horiz-adv-x="555" d="M180 0v1475h195v-1475h-195z" />
<glyph unicode="J" horiz-adv-x="1056" d="M709 1475h196v-957q0 -276 -123.5 -407t-365.5 -131q-144 0 -275 43q-82 25 -82 88q0 66 39 129q162 -90 308 -90q159 0 231 87t72 281v957z" />
<glyph unicode="K" horiz-adv-x="1263" d="M975 1475h213q-45 -200 -176 -381t-318 -308q206 -126 343.5 -335.5t172.5 -450.5h-211q-91 474 -454 700q-92 -45 -170 -69v-631h-195v1475h195v-707q224 96 383.5 279.5t216.5 427.5z" />
<glyph unicode="L" horiz-adv-x="1085" d="M375 1475v-1307h659v-168h-854v1475h195z" />
<glyph unicode="M" horiz-adv-x="1894" d="M1026 244h-158q-57 269 -164 538t-243 469q-119 -576 -119 -1251h-197q0 742 170 1475h162q141 -161 268 -421t199 -509q68 249 197 509t276 421h162q170 -733 170 -1475h-195q0 673 -122 1255q-137 -196 -243 -466.5t-163 -544.5z" />
<glyph unicode="N" horiz-adv-x="1425" d="M1245 0h-147q-103 326 -299 659.5t-424 552.5v-1212h-195v1475h135q222 -183 416.5 -450.5t319.5 -541.5v992h194v-1475z" />
<glyph unicode="O" d="M700 -20q-291 0 -449.5 187.5t-158.5 571.5q0 385 158 570.5t450 185.5q295 0 453 -185t158 -571q0 -385 -158.5 -572t-452.5 -187zM700 141q414 0 414 598q0 594 -414 594q-409 0 -409 -594q0 -598 409 -598z" />
<glyph unicode="P" horiz-adv-x="1226" d="M1171 987q0 -125 -37.5 -219.5t-107.5 -152t-163 -85.5t-210 -28h-278v-502h-195v1475h473q117 0 210 -28.5t163 -86.5t107.5 -153t37.5 -220zM375 1315v-653h278q318 0 318 325q0 328 -318 328h-278z" />
<glyph unicode="Q" d="M729 -20h-29q-291 0 -449.5 187.5t-158.5 571.5q0 385 158 570.5t450 185.5q295 0 453 -185t158 -571q0 -304 -106 -485.5t-296 -243.5q135 -180 355 -289q-51 -141 -138 -141q-56 0 -125 66q-148 143 -272 334zM700 141q414 0 414 598q0 594 -414 594q-409 0 -409 -594 q0 -598 409 -598z" />
<glyph unicode="R" horiz-adv-x="1290" d="M1212 0h-213q-78 346 -282 524q-46 40 -81 55t-81 15h-180v-594h-195v1475h467q254 0 387 -100t133 -320q0 -85 -31 -155.5t-85.5 -119t-121.5 -80t-147 -49.5q65 -24 146 -102q105 -98 180.5 -244t103.5 -305zM967 1036q0 148 -81.5 213.5t-244.5 65.5h-266v-563h227 q104 0 183.5 28t130.5 93.5t51 162.5z" />
<glyph unicode="S" horiz-adv-x="1169" d="M950 1233q-176 92 -358 92q-149 0 -216 -61.5t-67 -163.5q0 -93 73.5 -152t242.5 -98q227 -54 335.5 -155.5t108.5 -280.5q0 -192 -142.5 -313t-389.5 -121q-199 0 -355 59q-47 18 -64.5 40t-17.5 58q0 70 41 129q203 -116 404 -116q161 0 241 64.5t80 178.5 q0 104 -78 170t-268 111q-204 48 -307.5 147t-103.5 256q0 87 29 161.5t86.5 132.5t152.5 91t217 33q166 0 311 -43q48 -13 67 -35t19 -55q0 -68 -41 -129z" />
<glyph unicode="T" horiz-adv-x="1226" d="M1196 1307h-485v-1307h-195v1307h-487v168h1167v-168z" />
<glyph unicode="U" horiz-adv-x="1402" d="M154 1475h194v-863q0 -242 90 -352t262 -110q355 0 355 462v863h194v-863q0 -325 -142.5 -478.5t-406.5 -153.5q-546 0 -546 632v863z" />
<glyph unicode="V" horiz-adv-x="1316" d="M78 1475h203q51 -851 378 -1303q323 450 377 1303h203q-25 -442 -157 -839t-332 -636h-179q-202 237 -333.5 633t-159.5 842z" />
<glyph unicode="W" horiz-adv-x="1933" d="M88 1475h203q12 -211 31 -382t52.5 -342.5t87.5 -317t128 -261.5q153 230 213.5 500t70.5 655h185q8 -373 71.5 -651t210.5 -504q74 116 128 261.5t87.5 316.5t52.5 342.5t31 382.5h203q-57 -1015 -409 -1475h-170q-120 181 -191 355.5t-108 394.5q-36 -220 -106 -395 t-189 -355h-170q-351 462 -412 1475z" />
<glyph unicode="X" horiz-adv-x="1271" d="M113 1475h206q17 -187 88.5 -319.5t227.5 -266.5q156 133 227 265t90 321h207q-16 -217 -118.5 -382t-276.5 -311q188 -159 297.5 -348.5t134.5 -433.5h-211q-20 209 -107 372t-243 304q-156 -142 -243 -304.5t-105 -371.5h-211q25 243 134.5 433t295.5 349 q-83 70 -146.5 139.5t-119 154.5t-88 185.5t-39.5 213.5z" />
<glyph unicode="Y" horiz-adv-x="1249" d="M66 1475h202q46 -533 357 -830q310 293 356 830h203q-22 -281 -141 -538.5t-320 -432.5v-504h-195v504q-201 175 -319.5 432.5t-142.5 538.5z" />
<glyph unicode="Z" horiz-adv-x="1173" d="M129 1307v168h963l16 -148q-286 -242 -493.5 -537.5t-313.5 -621.5h786v-168h-993l-14 131q112 346 310 653t446 523h-707z" />
<glyph unicode="[" horiz-adv-x="628" d="M135 1552h416v-133h-236v-1593h236v-133h-416v1859z" />
<glyph unicode="\" horiz-adv-x="712" d="M649 -61h-170l-440 1597h170z" />
<glyph unicode="]" horiz-adv-x="628" d="M78 1552h416v-1859h-416v133h235v1593h-235v133z" />
<glyph unicode="^" horiz-adv-x="1122" d="M993 625l-98 -39q-171 340 -346 493q-182 -159 -344 -493l-101 39q171 410 353 628q43 52 92 52q48 0 94 -52q168 -192 350 -628z" />
<glyph unicode="_" horiz-adv-x="829" d="M0 -319v124h829v-124h-829z" />
<glyph unicode="`" horiz-adv-x="765" d="M557 1243l-57 -78l-394 240q10 63 41 101t70 38q21 0 37.5 -10.5t46.5 -38.5z" />
<glyph unicode="a" horiz-adv-x="1091" d="M926 0h-135l-31 162q-65 -86 -162.5 -134t-196.5 -48q-140 0 -226.5 75.5t-86.5 220.5q0 56 16.5 105.5t59.5 99t109 85t173 57.5t244 22h51v51q0 98 -45 151.5t-153 53.5q-167 0 -355 -82q-30 49 -30 105q0 33 14.5 50.5t50.5 29.5q142 49 318 49q76 0 136.5 -13 t102 -39t70.5 -59.5t45.5 -78.5t23.5 -93t7 -106v-664zM453 123q71 0 138 36t111 93q39 45 39 110v168h-43q-101 0 -177 -13.5t-121 -35.5t-73 -54t-38 -64t-10 -70q0 -81 49 -125.5t125 -44.5z" />
<glyph unicode="b" horiz-adv-x="1161" d="M1053 516q0 -118 -21.5 -210.5t-57.5 -152.5t-88 -98.5t-108.5 -54.5t-122.5 -16q-95 0 -178.5 41.5t-146.5 115.5l-29 -141h-135v1536h184v-633q57 68 142.5 108t171.5 40q65 0 121 -16t106 -55t85.5 -99t56 -153t20.5 -212zM860 516q0 117 -18.5 196.5t-54.5 119.5 t-76 55.5t-95 15.5q-72 0 -133.5 -35t-99.5 -94q-35 -55 -35 -143v-228q0 -98 43 -157q85 -115 223 -115q53 0 93 15.5t76.5 55t56.5 119t20 195.5z" />
<glyph unicode="c" horiz-adv-x="978" d="M852 831q-142 68 -260 68q-65 0 -115 -18.5t-90.5 -60.5t-62 -118.5t-21.5 -185.5t21.5 -186t62 -119t90.5 -60t115 -18q114 0 276 76q31 -51 31 -103q0 -34 -12.5 -51t-50.5 -30q-122 -43 -265 -43q-100 0 -181.5 29t-145.5 90.5t-99.5 167t-35.5 247.5t35.5 247.5 t99.5 167t145.5 91t181.5 29.5q147 0 246 -35q36 -12 50 -30t14 -52q0 -50 -29 -103z" />
<glyph unicode="d" horiz-adv-x="1161" d="M109 516q0 119 20.5 211.5t56.5 152.5t87 99t108 55.5t125 16.5q84 0 166 -37.5t139 -100.5v623h184v-1536h-133l-33 143q-62 -76 -149.5 -117.5t-177.5 -41.5q-68 0 -124.5 16t-107 54.5t-85.5 98.5t-55.5 152t-20.5 211zM303 516q0 -116 18.5 -195t54 -119t75.5 -55.5 t94 -15.5q72 0 133.5 35.5t99.5 93.5q35 50 35 143v228q0 88 -35 143q-38 59 -99 94t-134 35q-54 0 -94 -15.5t-75.5 -55.5t-54 -119.5t-18.5 -196.5z" />
<glyph unicode="e" horiz-adv-x="1089" d="M553 438q-115 0 -250 29q5 -81 23.5 -140.5t46 -96.5t68.5 -59t84 -30t98 -8q140 0 305 82q28 -54 28 -104q0 -33 -12.5 -50t-50.5 -32q-121 -47 -281 -47q-503 0 -503 538q0 140 35.5 244t99.5 165.5t145.5 91.5t181.5 30q197 0 303.5 -86t106.5 -230q0 -153 -105 -225 t-323 -72zM571 911q-118 0 -188 -74t-80 -257q130 -19 207 -19q152 0 217.5 42.5t65.5 137.5q0 82 -57.5 126t-164.5 44z" />
<glyph unicode="f" horiz-adv-x="722" d="M821 1346q-114 57 -227 57q-199 0 -199 -205v-166h305v-139h-305v-893h-186v893h-150v113l150 20v186q0 161 98.5 251.5t278.5 90.5q119 0 200 -22q36 -9 50 -27.5t14 -52.5q0 -55 -29 -106z" />
<glyph unicode="g" horiz-adv-x="1161" d="M109 516q0 118 21.5 211t57.5 153t87.5 99t108 55.5t122.5 16.5q95 0 178.5 -42.5t146.5 -117.5l31 141h133v-1044q0 -84 -14 -155t-48.5 -134t-87.5 -106.5t-135 -69t-188 -25.5q-166 0 -293 47q-36 13 -49.5 31t-13.5 51q0 62 31 113q73 -37 158 -59.5t155 -22.5 q163 0 232 82.5t69 232.5v152q-57 -66 -140.5 -103.5t-172.5 -37.5q-54 0 -101.5 11.5t-92 35.5t-79.5 66t-61.5 99.5t-40.5 138.5t-14 181zM545 131q72 0 133.5 35.5t99.5 93.5q35 50 35 143v228q0 100 -43 155q-86 117 -223 117q-52 0 -92 -16t-76 -56t-56 -119t-20 -194 q0 -117 18.5 -196.5t54 -119.5t75.5 -55.5t94 -15.5z" />
<glyph unicode="h" horiz-adv-x="1171" d="M1006 0h-187v688q0 199 -180 199q-75 0 -142.5 -34t-109.5 -89q-37 -47 -37 -113v-651h-184v1536h184v-647q66 76 156.5 118t179.5 42q163 0 241.5 -85.5t78.5 -240.5v-723z" />
<glyph unicode="i" horiz-adv-x="516" d="M350 0h-184v1032h184v-1032zM256 1251q-71 0 -93 23t-22 90q0 66 22 90.5t93 24.5q74 0 97.5 -23.5t23.5 -91.5q0 -66 -24 -89.5t-97 -23.5z" />
<glyph unicode="j" horiz-adv-x="518" d="M168 1032h184v-848q0 -207 -51 -357t-158 -263q-45 -45 -86 -45q-65 0 -139 92q147 123 198.5 245t51.5 302v874zM258 1251q-73 0 -95 23t-22 90q0 66 22.5 90.5t94.5 24.5q73 0 96 -23.5t23 -91.5q0 -66 -23 -89.5t-96 -23.5z" />
<glyph unicode="k" horiz-adv-x="1081" d="M762 1032h203q-26 -131 -108 -250.5t-204 -212.5q143 -100 233 -246.5t111 -322.5h-196q-45 322 -266 492q-85 -47 -185 -84v-408h-184v1536h184v-999q342 155 412 495z" />
<glyph unicode="l" horiz-adv-x="516" d="M350 0h-184v1536h184v-1536z" />
<glyph unicode="m" horiz-adv-x="1740" d="M963 0h-185v688q0 199 -166 199q-125 0 -225 -123q-37 -47 -37 -113v-651h-184v1032h135l33 -153q63 80 153.5 125t171.5 45q115 0 183.5 -48.5t97.5 -126.5q63 81 156.5 128t175.5 47q154 0 228.5 -85.5t74.5 -240.5v-723h-186v688q0 199 -164 199q-130 0 -228 -123 q-34 -40 -34 -113v-651z" />
<glyph unicode="n" horiz-adv-x="1171" d="M1006 0h-187v688q0 199 -180 199q-75 0 -142.5 -34t-109.5 -89q-37 -47 -37 -113v-651h-184v1032h135l33 -155q67 82 162.5 127t189.5 45q163 0 241.5 -85.5t78.5 -240.5v-723z" />
<glyph unicode="o" horiz-adv-x="1144" d="M571 -18q-100 0 -181.5 29t-145.5 91t-99.5 168t-35.5 250q0 140 35.5 244t99.5 165.5t145.5 91.5t181.5 30q101 0 183 -29t146.5 -90t100 -165.5t35.5 -246.5q0 -141 -36 -247t-101 -168.5t-147 -92.5t-181 -30zM571 129q60 0 106 17.5t85 59.5t59.5 121.5t20.5 192.5 t-20.5 191t-59.5 119t-85 58t-106 17q-59 0 -104.5 -17t-84 -58t-59 -119t-20.5 -191t20.5 -192.5t59 -121.5t84 -59.5t104.5 -17.5z" />
<glyph unicode="p" horiz-adv-x="1161" d="M1053 516q0 -119 -20.5 -211t-56 -152t-86.5 -98.5t-108 -54.5t-125 -16q-85 0 -168 37.5t-139 99.5v-608h-184v1519h135l29 -143q64 76 151.5 119t177.5 43q68 0 124.5 -16.5t107.5 -55.5t86 -99t55.5 -152.5t20.5 -211.5zM860 518q0 94 -13 163.5t-34.5 111.5t-54 67 t-66 34t-76.5 9q-72 0 -133.5 -35t-99.5 -94q-35 -55 -35 -143v-228q0 -93 35 -143q40 -58 101 -93.5t132 -35.5q55 0 95 15.5t76 55.5t54.5 119.5t18.5 196.5z" />
<glyph unicode="q" horiz-adv-x="1155" d="M109 516q0 118 21.5 211t57.5 153t87.5 99t108 55.5t122.5 16.5q95 0 178.5 -42.5t146.5 -117.5l31 141h133v-1519h-184v614q-58 -67 -142.5 -105t-170.5 -38q-54 0 -101.5 11.5t-92 35.5t-79.5 66t-61.5 99.5t-40.5 138.5t-14 181zM303 518q0 -117 18.5 -196.5 t54 -119.5t75.5 -55.5t94 -15.5q72 0 133.5 35.5t99.5 93.5q35 50 35 143v228q0 100 -43 155q-86 117 -223 117q-41 0 -74 -9t-65.5 -34t-55 -67t-36 -112t-13.5 -163z" />
<glyph unicode="r" horiz-adv-x="825" d="M748 864q-49 8 -105 8q-165 0 -256 -108q-37 -40 -37 -113v-651h-184v1032h135l33 -153q65 80 163.5 125t188.5 45q43 0 61.5 -21t18.5 -65q0 -49 -18 -99z" />
<glyph unicode="s" horiz-adv-x="937" d="M756 834q-152 79 -301 79q-89 0 -137 -42t-48 -105q0 -34 15 -61t36 -44t59 -32t66 -22.5t76 -18.5q54 -12 96.5 -26.5t87 -39t73.5 -56t48 -78.5t19 -105q0 -139 -96 -221t-291 -82q-170 0 -291 40q-40 14 -57 33.5t-17 52.5q0 59 39 105q175 -88 338 -88q199 0 199 153 q0 29 -9.5 52.5t-30 41t-41.5 30.5t-55 24t-59 17.5t-65 15.5q-70 16 -119 34.5t-98 51.5t-74 85.5t-25 123.5q0 59 23.5 112t69.5 96t122 68t172 25q130 0 242 -35q40 -12 56 -32t16 -52q0 -61 -39 -100z" />
<glyph unicode="t" horiz-adv-x="786" d="M61 893v113l156 22l41 242h139v-238h314v-139h-314v-576q0 -98 38.5 -139t117.5 -41q62 0 149 43q27 -44 27 -90q0 -34 -13 -52t-50 -30q-81 -24 -170 -24q-132 0 -208.5 66t-76.5 224v619h-150z" />
<glyph unicode="u" horiz-adv-x="1165" d="M166 1032h184v-686q0 -201 182 -201q75 0 140 33.5t106 89.5q37 47 37 115v649h184v-1032h-135l-33 154q-67 -81 -161 -125.5t-187 -44.5q-162 0 -239.5 86t-77.5 241v721z" />
<glyph unicode="v" horiz-adv-x="1032" d="M80 1032h196q15 -301 70.5 -513.5t169.5 -385.5q112 172 167 384.5t73 514.5h194q-36 -659 -360 -1032h-148q-324 372 -362 1032z" />
<glyph unicode="w" horiz-adv-x="1554" d="M86 1032h197q18 -566 198 -895q105 158 155.5 352.5t55.5 440.5h164q9 -487 211 -793q185 337 205 895h196q-10 -345 -90.5 -594t-218.5 -438h-160q-173 252 -225 541q-51 -283 -225 -541h-158q-286 395 -305 1032z" />
<glyph unicode="x" horiz-adv-x="1079" d="M764 1032h197q-11 -153 -85 -261.5t-219 -215.5q295 -210 332 -555h-194q-15 145 -76.5 255t-179.5 210q-117 -101 -178.5 -211.5t-73.5 -253.5h-197q34 343 330 555q-144 106 -217 215.5t-84 261.5h196q11 -123 59 -213.5t167 -181.5q118 91 165 181t58 214z" />
<glyph unicode="y" horiz-adv-x="1036" d="M760 1032h194q-13 -226 -65.5 -433.5t-138 -385.5t-188.5 -328t-234 -295q-63 -71 -115 -71q-80 0 -131 125q225 159 367 356q-164 186 -254.5 439t-110.5 593h197q14 -306 70 -521.5t177 -389.5q211 363 232 911z" />
<glyph unicode="z" horiz-adv-x="929" d="M100 881v151h740l10 -137q-184 -137 -341.5 -339.5t-244.5 -403.5h576v-152h-754l-12 115q80 203 224.5 406t330.5 360h-529z" />
<glyph unicode="{" horiz-adv-x="702" d="M655 1487q0 -40 -18 -96q-28 4 -51 4q-99 0 -155 -51.5t-56 -141.5q0 -62 20.5 -176t20.5 -186q0 -77 -39 -135t-105 -80q66 -22 105 -81t39 -134q0 -72 -20.5 -186.5t-20.5 -176.5q0 -90 56 -141t155 -51q15 0 51 4q18 -56 18 -97q0 -42 -20.5 -57.5t-73.5 -15.5 q-176 0 -267 84.5t-91 212.5q0 77 28.5 210t28.5 210q0 67 -35 110t-106 43h-49v131h49q71 0 106 43.5t35 110.5q0 77 -28.5 210t-28.5 210q0 128 91 212.5t267 84.5q53 0 73.5 -16t20.5 -58z" />
<glyph unicode="|" horiz-adv-x="552" d="M369 -410h-185v2065h185v-2065z" />
<glyph unicode="}" horiz-adv-x="702" d="M47 1487q0 43 20 58.5t74 15.5q176 0 267.5 -84.5t91.5 -212.5q0 -77 -29 -210t-29 -210q0 -66 35 -110t105 -44h49v-131h-49q-70 0 -105 -43.5t-35 -109.5q0 -77 29 -210t29 -210q0 -128 -91.5 -212.5t-267.5 -84.5q-54 0 -74 15t-20 58q0 48 19 97q36 -4 51 -4 q99 0 155 51t56 141q0 62 -20.5 176.5t-20.5 186.5q0 76 38 135t103 80q-66 22 -103.5 80t-37.5 135q0 72 20.5 186t20.5 176q0 90 -56 141.5t-155 51.5q-23 0 -51 -4q-19 49 -19 96z" />
<glyph unicode="~" horiz-adv-x="1007" d="M156 430l-97 12q18 143 87.5 213t160.5 70q44 0 91 -18t86 -43.5t76.5 -51t76 -43.5t70.5 -18q54 0 89.5 35t53.5 112l96 -12q-16 -141 -86.5 -212t-161.5 -71q-52 0 -111 27.5t-102.5 60t-95.5 60t-92 27.5q-53 0 -88 -34.5t-53 -113.5z" />
<glyph unicode="&#xa1;" horiz-adv-x="561" d="M283 1047q65 0 88.5 -30t23.5 -102q0 -71 -23.5 -102t-88.5 -31t-90 30.5t-25 102.5q0 71 25.5 101.5t89.5 30.5zM217 563h133q31 -639 33 -1005h-201q2 328 35 1005z" />
<glyph unicode="&#xa2;" horiz-adv-x="1013" d="M659 0h-188v213q-174 28 -273.5 156t-99.5 372q0 242 101 371.5t272 155.5v215h188v-211q80 -6 160 -31q36 -12 50 -30t14 -52q0 -49 -29 -102q-142 67 -272 67q-65 0 -115 -18.5t-90.5 -60.5t-62 -118.5t-21.5 -185.5t21.5 -186t62 -119t90.5 -60t115 -18q120 0 290 76 q29 -53 29 -102q0 -34 -12.5 -51.5t-50.5 -30.5q-92 -30 -179 -39v-211z" />
<glyph unicode="&#xa3;" horiz-adv-x="1069" d="M33 662v145h151v199q0 235 106.5 362t317.5 127q149 0 283 -49q63 -23 63 -84q0 -29 -9.5 -68.5t-22.5 -62.5q-165 92 -299 92q-118 0 -181 -74t-63 -223v-219h424v-145h-424v-62q0 -168 -31 -266.5t-98 -165.5h717v-168h-934v102q73 53 112 163t39 267v130h-151z" />
<glyph unicode="&#xa4;" horiz-adv-x="1196" d="M598 307q-123 0 -229 68l-168 -166l-119 117l168 163q-74 109 -74 246q0 134 74 238l-168 164l119 114l170 -166q111 68 227 68t227 -68l170 166l119 -114l-168 -164q74 -104 74 -238q0 -136 -74 -248l168 -161l-119 -117l-168 164q-107 -66 -229 -66zM598 463 q110 0 179 69t69 203q0 127 -69.5 195.5t-178.5 68.5t-178.5 -68.5t-69.5 -195.5q0 -134 69 -203t179 -69z" />
<glyph unicode="&#xa5;" horiz-adv-x="1257" d="M1085 285h-358v-285h-195v285h-360v125h360v190h-360v125h240q-147 150 -234 346.5t-108 403.5h202q46 -488 357 -752q306 262 356 752h203q-19 -206 -106.5 -402.5t-235.5 -347.5h239v-125h-358v-190h358v-125z" />
<glyph unicode="&#xa6;" horiz-adv-x="552" d="M369 807h-185v848h185v-848zM369 -410h-185v848h185v-848z" />
<glyph unicode="&#xa7;" horiz-adv-x="1017" d="M178 90q187 -96 320 -96q89 0 143.5 35t54.5 102q0 118 -258 207q-90 32 -155 64.5t-118 75t-79.5 95.5t-26.5 117q0 102 71.5 175t188.5 93q-186 89 -186 246q0 55 23.5 106t69.5 93t122 67t172 25q129 0 242 -37q72 -22 72 -84q0 -59 -39 -98q-157 80 -301 80 q-77 0 -132 -40.5t-55 -107.5q0 -66 70.5 -116t189.5 -93q91 -31 155.5 -63t117.5 -75t79.5 -98t26.5 -124q0 -95 -72.5 -167t-187.5 -91q184 -89 184 -246q0 -123 -101 -201.5t-294 -78.5q-144 0 -254 39q-80 29 -80 92q0 61 37 104zM778 627q0 85 -68 138t-212 99 q-40 15 -74 15q-86 0 -141.5 -50.5t-55.5 -121.5q0 -80 68.5 -133t210.5 -101q43 -12 84 -12q78 0 133 50t55 116z" />
<glyph unicode="&#xa8;" horiz-adv-x="878" d="M236 1251q-66 0 -86.5 23.5t-20.5 89.5t21 90.5t86 24.5q66 0 86 -23.5t20 -91.5q0 -67 -20 -90t-86 -23zM641 1251q-66 0 -86 23t-20 90q0 66 20.5 90.5t85.5 24.5q66 0 86.5 -23.5t20.5 -91.5q0 -66 -20.5 -89.5t-86.5 -23.5z" />
<glyph unicode="&#xa9;" horiz-adv-x="1781" d="M891 -88q-125 0 -242 34t-218 103t-176.5 166t-119 231.5t-43.5 290.5q0 194 66.5 353.5t178 261t254.5 156.5t300 55q158 0 301 -55t255 -156.5t178.5 -261t66.5 -353.5q0 -156 -43.5 -290.5t-119 -231.5t-177 -166t-218.5 -103t-243 -34zM891 35q134 0 252 46t209 132 t143.5 221.5t52.5 302.5t-52.5 302.5t-143.5 222t-209 132.5t-252 46t-252 -46t-208 -132.5t-142.5 -222t-52.5 -302.5t52.5 -302.5t142.5 -221.5t208 -132t252 -46zM1194 1001q-136 62 -246 62q-274 0 -274 -326q0 -325 274 -325q112 0 256 65q29 -50 29 -94 q0 -29 -14.5 -48t-49.5 -32q-115 -45 -245 -45q-96 0 -174.5 27t-139.5 83t-95 150t-34 219q0 126 34 220.5t95 150t139.5 82.5t174.5 27q124 0 233 -39q66 -24 66 -80q0 -47 -29 -97z" />
<glyph unicode="&#xaa;" horiz-adv-x="808" d="M698 735h-102l-31 121q-41 -62 -110 -97.5t-144 -35.5q-103 0 -171 57.5t-68 157.5q0 52 23.5 98t72 84.5t132 61t192.5 22.5h59v35q0 68 -32.5 103.5t-115.5 35.5q-125 0 -245 -57q-27 42 -27 82q0 48 43 61q106 37 242 37q151 0 216.5 -72.5t65.5 -211.5v-482zM352 840 q52 0 101.5 27.5t78.5 72.5q19 31 19 88v100h-29q-156 0 -226.5 -51t-70.5 -123q0 -58 34.5 -86t92.5 -28z" />
<glyph unicode="&#xab;" horiz-adv-x="1093" d="M584 100l-78 -65q-281 227 -414 442v78q137 221 414 442l78 -63q-216 -233 -297 -418q79 -182 297 -416zM1020 100l-78 -65q-281 227 -414 442v78q137 221 414 442l78 -63q-216 -233 -297 -418q79 -182 297 -416z" />
<glyph unicode="&#xac;" horiz-adv-x="1110" d="M985 188h-154v392h-747v141h901v-533z" />
<glyph unicode="&#xad;" horiz-adv-x="745" d="M96 483v152h551v-152h-551z" />
<glyph unicode="&#xae;" horiz-adv-x="1210" d="M866 879h-139q-5 85 -53 161t-109 76h-63v-237h-121v587h252q229 0 229 -176q0 -64 -42.5 -104t-108.5 -51q59 -27 102.5 -99.5t52.5 -156.5zM735 1286q0 52 -30 75t-91 23h-112v-196h119q58 0 86 23t28 75zM606 633q-153 0 -274 65t-190.5 187.5t-69.5 283.5t69.5 284 t190.5 188t274 65q232 0 382.5 -147.5t150.5 -389.5t-150 -389t-383 -147zM606 737q191 0 304.5 113t113.5 319t-113.5 319.5t-304.5 113.5t-305.5 -114t-114.5 -319t114.5 -318.5t305.5 -113.5z" />
<glyph unicode="&#xaf;" horiz-adv-x="847" d="M104 1317v137h631v-137h-631z" />
<glyph unicode="&#xb0;" horiz-adv-x="737" d="M369 1135q70 0 112.5 44.5t42.5 112.5q0 70 -42.5 115t-112.5 45t-113 -45t-43 -115q0 -68 43 -112.5t113 -44.5zM369 1012q-128 0 -212.5 79t-84.5 201q0 124 84.5 203.5t212.5 79.5t211.5 -79.5t83.5 -203.5q0 -123 -83.5 -201.5t-211.5 -78.5z" />
<glyph unicode="&#xb1;" horiz-adv-x="1026" d="M592 420h-156v293h-340v139h340v287h156v-287h338v-139h-338v-293zM930 141h-834v142h834v-142z" />
<glyph unicode="&#xb2;" horiz-adv-x="686" d="M596 920h-524l-11 71q216 226 292.5 324t76.5 172q0 46 -35.5 71t-101.5 25q-96 0 -197 -53q-22 42 -22 84q0 21 8.5 33.5t32.5 19.5q105 33 209 33q126 0 198 -49.5t72 -132.5q0 -94 -80.5 -201.5t-267.5 -274.5h350v-122z" />
<glyph unicode="&#xb3;" horiz-adv-x="700" d="M84 1073q88 -49 201 -49q78 0 123 30.5t45 90.5q0 125 -201 125h-55l-11 96h39q102 0 156.5 37.5t54.5 93.5q0 38 -35.5 65t-99.5 27q-97 0 -195 -53q-24 38 -24 78q0 21 9 32.5t34 20.5q101 33 199 33q119 0 190.5 -50t71.5 -128q0 -73 -45.5 -125.5t-118.5 -71.5 q86 -16 138 -65.5t52 -129.5q0 -105 -84.5 -164t-220.5 -59q-102 0 -203 33q-43 14 -43 55q0 36 23 78z" />
<glyph unicode="&#xb4;" horiz-adv-x="765" d="M250 1165l-60 78l256 252q29 27 46.5 38t37.5 11q40 0 71.5 -37.5t41.5 -101.5z" />
<glyph unicode="&#xb5;" horiz-adv-x="1181" d="M166 -487v1519h184v-686q0 -205 182 -205q75 0 140 33.5t106 89.5q37 47 37 119v649h184v-805q0 -67 19 -95t63 -28q10 0 27 1t27 1v-100q-74 -16 -119 -16q-136 0 -170 135l-4 43q-49 -84 -132.5 -134t-174.5 -50q-127 0 -185 82v-553h-184z" />
<glyph unicode="&#xb6;" horiz-adv-x="1177" d="M997 -205h-125v1553h-141v-1553h-125v809h-106q-72 0 -130.5 12t-111.5 43t-88.5 80t-56.5 127t-21 181q0 121 33 205.5t98.5 132.5t151.5 69t205 21h417v-1680z" />
<glyph unicode="&#xb7;" horiz-adv-x="475" d="M238 471q-73 0 -102.5 31t-29.5 108t29.5 110.5t102.5 33.5q72 0 101.5 -32.5t29.5 -111.5q0 -76 -29.5 -107.5t-101.5 -31.5z" />
<glyph unicode="&#xb8;" horiz-adv-x="602" d="M109 -317q71 -33 135 -33q57 0 91 25t34 71q0 82 -115 82q-29 0 -70 -6l-22 26l41 181l110 -4l-26 -123q16 2 47 2q79 0 132.5 -41t53.5 -117q0 -96 -77 -151.5t-197 -55.5q-62 0 -127 19q-39 12 -39 45q0 40 29 80z" />
<glyph unicode="&#xb9;" horiz-adv-x="618" d="M453 920h-158v667q-112 -9 -223 -88q-12 13 -21.5 43.5t-9.5 52.5q0 42 41 58q44 20 111.5 31.5t128.5 11.5q60 0 131 -13v-763z" />
<glyph unicode="&#xba;" horiz-adv-x="829" d="M414 723q-74 0 -136 21.5t-112 66.5t-78.5 122.5t-28.5 180.5q0 101 28.5 177.5t78.5 121t112 66.5t136 22q75 0 137 -21t112 -65.5t77.5 -121t27.5 -179.5q0 -102 -28 -179t-78 -122.5t-112 -67.5t-136 -22zM414 844q43 0 75.5 12t60 40.5t42 83.5t14.5 134 q0 80 -14.5 134.5t-42.5 82t-60 38.5t-75 11t-75.5 -11t-60.5 -38.5t-42.5 -82t-14.5 -134.5q0 -79 14.5 -134t42.5 -83.5t60.5 -40.5t75.5 -12z" />
<glyph unicode="&#xbb;" horiz-adv-x="1093" d="M152 35l-80 65q215 228 297 416q-83 192 -297 418l80 63q274 -221 411 -442v-78q-130 -215 -411 -442zM588 35l-80 65q215 228 297 416q-83 192 -297 418l80 63q274 -221 411 -442v-78q-130 -215 -411 -442z" />
<glyph unicode="&#xbc;" horiz-adv-x="1583" d="M453 709h-158v667q-112 -9 -223 -88q-12 13 -21.5 43.5t-9.5 52.5q0 42 41 58q44 20 111.5 31.5t128.5 11.5q65 0 131 -12v-764zM399 0h-149l883 1475h151zM1409 -4h-149v164h-365l-23 61q38 151 157 310.5t249 232.5h131v-498h121v-106h-121v-164zM1260 643 q-89 -71 -163.5 -172.5t-111.5 -204.5h275v377z" />
<glyph unicode="&#xbd;" horiz-adv-x="1599" d="M453 709h-158v667q-112 -9 -223 -88q-12 13 -21.5 43.5t-9.5 52.5q0 42 41 58q44 20 111.5 31.5t128.5 11.5q65 0 131 -12v-764zM399 0h-149l883 1475h151zM1509 -4h-524l-10 72q216 226 292 323.5t76 171.5q0 46 -35.5 71t-101.5 25q-95 0 -196 -53q-23 44 -23 84 q0 21 8.5 33.5t32.5 19.5q104 33 209 33q126 0 198 -49.5t72 -132.5q0 -94 -80.5 -200.5t-267.5 -274.5h350v-123z" />
<glyph unicode="&#xbe;" horiz-adv-x="1665" d="M84 868q88 -49 201 -49q78 0 123 30.5t45 90.5q0 125 -201 125h-55l-11 96h39q102 0 156.5 37.5t54.5 93.5q0 38 -35.5 65t-99.5 27q-97 0 -195 -53q-24 37 -24 78q0 21 9 32.5t34 20.5q101 33 199 33q119 0 190.5 -50t71.5 -128q0 -73 -45.5 -125.5t-118.5 -71.5 q86 -16 138 -65t52 -129q0 -105 -85 -164.5t-220 -59.5q-102 0 -203 33q-43 14 -43 56q0 35 23 77zM481 0h-149l882 1475h152zM1491 -4h-150v164h-364l-23 61q38 151 157 310.5t249 232.5h131v-498h121v-106h-121v-164zM1341 643q-89 -70 -163 -172t-111 -205h274v377z" />
<glyph unicode="&#xbf;" horiz-adv-x="870" d="M506 1049q64 0 87 -29.5t23 -101.5q0 -71 -23.5 -102.5t-86.5 -31.5q-65 0 -90 31t-25 103q0 71 25 101t90 30zM799 -207q39 -58 39 -129q0 -35 -18 -57t-66 -35q-149 -41 -316 -41q-196 0 -299.5 91t-103.5 233q0 107 53 193.5t176 178.5q115 86 156 156t41 147 q0 22 -4 62h131q20 -85 20 -148q0 -89 -42 -168.5t-144 -158.5q-116 -89 -156.5 -139t-40.5 -115q0 -74 51.5 -118t165.5 -44q181 0 357 92z" />
<glyph unicode="&#xc0;" horiz-adv-x="1320" d="M285 0h-203q28 447 159.5 846t331.5 629h177q199 -232 331.5 -631.5t157.5 -843.5h-203q-11 175 -37 367h-677q-30 -224 -37 -367zM969 535q-95 467 -307 782q-215 -315 -310 -782h617zM782 1638l-45 -84l-430 187q3 63 32.5 103t68.5 40q12 0 23.5 -4.5t19 -9 t26.5 -17.5z" />
<glyph unicode="&#xc1;" horiz-adv-x="1320" d="M285 0h-203q28 447 159.5 846t331.5 629h177q199 -232 331.5 -631.5t157.5 -843.5h-203q-11 175 -37 367h-677q-30 -224 -37 -367zM969 535q-95 467 -307 782q-215 -315 -310 -782h617zM584 1554l-45 84l305 215q19 13 26.5 17.5t19 9t23.5 4.5q39 0 68.5 -40t32.5 -103z " />
<glyph unicode="&#xc2;" horiz-adv-x="1320" d="M285 0h-203q28 447 159.5 846t331.5 629h177q199 -232 331.5 -631.5t157.5 -843.5h-203q-11 175 -37 367h-677q-30 -224 -37 -367zM969 535q-95 467 -307 782q-215 -315 -310 -782h617zM975 1614l-60 -60q-164 134 -253 177q-93 -44 -256 -177l-60 60q117 155 213 233 q50 41 100 41t103 -41q96 -78 213 -233z" />
<glyph unicode="&#xc3;" horiz-adv-x="1320" d="M285 0h-203q28 447 159.5 846t331.5 629h177q199 -232 331.5 -631.5t157.5 -843.5h-203q-11 175 -37 367h-677q-30 -224 -37 -367zM969 535q-95 467 -307 782q-215 -315 -310 -782h617zM375 1626l-94 31q29 116 95.5 173.5t147.5 57.5q44 0 91 -20t80 -43.5t70 -43.5 t62 -20q84 0 136 125l94 -33q-32 -120 -98.5 -178.5t-149.5 -58.5q-43 0 -89 20.5t-78.5 45t-70 45t-65.5 20.5q-83 0 -131 -121z" />
<glyph unicode="&#xc4;" horiz-adv-x="1320" d="M285 0h-203q28 447 159.5 846t331.5 629h177q199 -232 331.5 -631.5t157.5 -843.5h-203q-11 175 -37 367h-677q-30 -224 -37 -367zM969 535q-95 467 -307 782q-215 -315 -310 -782h617zM455 1624q-65 0 -85 24t-20 91q0 66 20 90t85 24q66 0 87 -23.5t21 -90.5t-21 -91 t-87 -24zM860 1624q-65 0 -84.5 24t-19.5 91q0 66 19.5 90t84.5 24q66 0 87.5 -23.5t21.5 -90.5q0 -66 -21.5 -90.5t-87.5 -24.5z" />
<glyph unicode="&#xc5;" horiz-adv-x="1320" d="M285 0h-203q28 447 159.5 846t331.5 629h177q199 -232 331.5 -631.5t157.5 -843.5h-203q-11 175 -37 367h-677q-30 -224 -37 -367zM969 535q-95 467 -307 782q-215 -315 -310 -782h617zM659 1518q-88 0 -150.5 56t-62.5 150q0 96 62.5 152.5t150.5 56.5t149.5 -56.5 t61.5 -152.5q0 -94 -62 -150t-149 -56zM659 1599q49 0 83 31.5t34 93.5q0 63 -34 95t-83 32q-50 0 -84 -32t-34 -95q0 -62 34 -93.5t84 -31.5z" />
<glyph unicode="&#xc6;" horiz-adv-x="1923" d="M260 0h-205q41 229 134 460t214.5 423.5t265 347.5t287.5 244h881v-160h-684v-469h545v-160h-545v-526h698v-160h-895v358h-602q-57 -162 -94 -358zM956 526v756q-155 -127 -294.5 -323t-241.5 -433h536z" />
<glyph unicode="&#xc7;" horiz-adv-x="1155" d="M500 -317q71 -33 135 -33q57 0 91 25t34 71q0 82 -115 82q-29 0 -70 -6l-22 26l31 140q-233 35 -362.5 221.5t-129.5 529.5q0 194 44 340.5t125 236.5t190 134.5t245 44.5q154 0 301 -41q48 -13 67 -35t19 -55q0 -58 -39 -121q-166 90 -342 90q-194 0 -302.5 -145.5 t-108.5 -448.5q0 -302 109 -450t302 -148q185 0 361 95q39 -59 39 -119q0 -34 -18.5 -55.5t-67.5 -34.5q-158 -47 -322 -47l-16 -78q16 2 47 2q79 0 132.5 -41t53.5 -117q0 -96 -77 -151.5t-197 -55.5q-62 0 -127 19q-39 12 -39 45q0 40 29 80z" />
<glyph unicode="&#xc8;" horiz-adv-x="1153" d="M180 0v1475h854v-160h-659v-469h520v-160h-520v-526h674v-160h-869zM733 1638l-45 -84l-430 187q3 63 32 103t68 40q25 0 70 -31z" />
<glyph unicode="&#xc9;" horiz-adv-x="1153" d="M180 0v1475h854v-160h-659v-469h520v-160h-520v-526h674v-160h-869zM526 1554l-45 84l305 215q45 31 70 31q39 0 68 -40t32 -103z" />
<glyph unicode="&#xca;" horiz-adv-x="1153" d="M180 0v1475h854v-160h-659v-469h520v-160h-520v-526h674v-160h-869zM938 1614l-59 -60q-163 132 -254 177q-93 -44 -256 -177l-60 60q117 155 213 233q50 41 101 41q49 0 102 -41q96 -78 213 -233z" />
<glyph unicode="&#xcb;" horiz-adv-x="1153" d="M180 0v1475h854v-160h-659v-469h520v-160h-520v-526h674v-160h-869zM414 1624q-65 0 -85 24t-20 91q0 66 20 90t85 24q66 0 87 -23.5t21 -90.5t-21 -91t-87 -24zM819 1624q-65 0 -84.5 24t-19.5 91q0 66 19.5 90t84.5 24q66 0 87.5 -23.5t21.5 -90.5q0 -66 -21.5 -90.5 t-87.5 -24.5z" />
<glyph unicode="&#xcc;" horiz-adv-x="555" d="M180 0v1475h195v-1475h-195zM430 1638l-45 -84l-430 187q3 63 32 103t68 40q25 0 70 -31z" />
<glyph unicode="&#xcd;" horiz-adv-x="555" d="M180 0v1475h195v-1475h-195zM158 1554l-45 84l305 215q19 13 26.5 17.5t19 9t23.5 4.5q39 0 68.5 -40t32.5 -103z" />
<glyph unicode="&#xce;" horiz-adv-x="555" d="M180 0v1475h195v-1475h-195zM592 1614l-60 -60q-164 134 -253 177q-93 -44 -256 -177l-60 60q117 155 213 233q50 41 100 41t103 -41q96 -78 213 -233z" />
<glyph unicode="&#xcf;" horiz-adv-x="555" d="M180 0v1475h195v-1475h-195zM74 1624q-65 0 -85 24t-20 91q0 66 20 90t85 24q66 0 87 -23.5t21 -90.5t-21 -91t-87 -24zM479 1624q-65 0 -84.5 24t-19.5 91q0 66 19.5 90t84.5 24q66 0 87.5 -23.5t21.5 -90.5q0 -66 -21.5 -90.5t-87.5 -24.5z" />
<glyph unicode="&#xd0;" horiz-adv-x="1421" d="M39 692v125h172v658h446q162 0 283.5 -40.5t210 -127.5t133.5 -229.5t45 -340.5t-45 -340.5t-133.5 -229t-210 -127t-283.5 -40.5h-446v692h-172zM406 158h249q117 0 203.5 31t148 99t92.5 180t31 269q0 309 -119 444.5t-356 135.5h-249v-500h380v-125h-380v-534z" />
<glyph unicode="&#xd1;" horiz-adv-x="1425" d="M1245 0h-147q-103 326 -299 659.5t-424 552.5v-1212h-195v1475h135q222 -183 416.5 -450.5t319.5 -541.5v992h194v-1475zM426 1626l-94 31q29 116 95.5 173.5t147.5 57.5q44 0 91 -20t80.5 -43.5t70.5 -43.5t62 -20q83 0 135 125l94 -33q-32 -120 -98.5 -178.5 t-149.5 -58.5q-43 0 -89 20.5t-78.5 45t-70 45t-65.5 20.5q-83 0 -131 -121z" />
<glyph unicode="&#xd2;" d="M700 -20q-291 0 -449.5 187.5t-158.5 571.5q0 385 158 570.5t450 185.5q295 0 453 -185t158 -571q0 -385 -158.5 -572t-452.5 -187zM700 141q414 0 414 598q0 594 -414 594q-409 0 -409 -594q0 -598 409 -598zM829 1638l-45 -84l-430 187q3 63 32.5 103t68.5 40 q12 0 23.5 -4.5t19 -9t26.5 -17.5z" />
<glyph unicode="&#xd3;" d="M700 -20q-291 0 -449.5 187.5t-158.5 571.5q0 385 158 570.5t450 185.5q295 0 453 -185t158 -571q0 -385 -158.5 -572t-452.5 -187zM700 141q414 0 414 598q0 594 -414 594q-409 0 -409 -594q0 -598 409 -598zM582 1554l-45 84l305 215q19 13 26.5 17.5t19 9t23.5 4.5 q39 0 68.5 -40t32.5 -103z" />
<glyph unicode="&#xd4;" d="M700 -20q-291 0 -449.5 187.5t-158.5 571.5q0 385 158 570.5t450 185.5q295 0 453 -185t158 -571q0 -385 -158.5 -572t-452.5 -187zM700 141q414 0 414 598q0 594 -414 594q-409 0 -409 -594q0 -598 409 -598zM1016 1614l-60 -60q-163 132 -254 177q-93 -44 -256 -177 l-59 60q117 155 213 233q50 41 100 41t103 -41q96 -78 213 -233z" />
<glyph unicode="&#xd5;" d="M700 -20q-291 0 -449.5 187.5t-158.5 571.5q0 385 158 570.5t450 185.5q295 0 453 -185t158 -571q0 -385 -158.5 -572t-452.5 -187zM700 141q414 0 414 598q0 594 -414 594q-409 0 -409 -594q0 -598 409 -598zM410 1626l-95 31q29 116 96 173.5t148 57.5q44 0 91 -20 t80 -43.5t70 -43.5t62 -20q83 0 135 125l95 -33q-32 -120 -98.5 -178.5t-149.5 -58.5q-43 0 -89 20.5t-78.5 45t-70 45t-65.5 20.5q-83 0 -131 -121z" />
<glyph unicode="&#xd6;" d="M700 -20q-291 0 -449.5 187.5t-158.5 571.5q0 385 158 570.5t450 185.5q295 0 453 -185t158 -571q0 -385 -158.5 -572t-452.5 -187zM700 141q414 0 414 598q0 594 -414 594q-409 0 -409 -594q0 -598 409 -598zM498 1624q-65 0 -85 24t-20 91q0 66 20 90t85 24 q66 0 87 -23.5t21 -90.5t-21 -91t-87 -24zM903 1624q-65 0 -84.5 24t-19.5 91q0 66 19.5 90t84.5 24q66 0 87.5 -23.5t21.5 -90.5q0 -66 -21.5 -90.5t-87.5 -24.5z" />
<glyph unicode="&#xd7;" horiz-adv-x="1026" d="M909 930l-288 -281l288 -278l-104 -105l-291 281l-291 -281l-104 105l289 278l-289 281l104 104l291 -280l291 280z" />
<glyph unicode="&#xd8;" d="M197 -117l-109 72l154 223q-150 192 -150 561q0 385 158 570.5t450 185.5q227 0 371 -109l139 203l109 -71l-154 -224q146 -191 146 -555q0 -385 -158.5 -572t-452.5 -187q-223 0 -364 106zM291 739q0 -248 65 -393l613 889q-98 98 -269 98q-409 0 -409 -594zM700 141 q414 0 414 598q0 243 -63 387l-613 -888q100 -97 262 -97z" />
<glyph unicode="&#xd9;" horiz-adv-x="1402" d="M154 1475h194v-863q0 -242 90 -352t262 -110q355 0 355 462v863h194v-863q0 -325 -142.5 -478.5t-406.5 -153.5q-546 0 -546 632v863zM795 1638l-45 -84l-431 187q3 63 32.5 103t68.5 40q12 0 23.5 -4.5t19 -9t26.5 -17.5z" />
<glyph unicode="&#xda;" horiz-adv-x="1402" d="M154 1475h194v-863q0 -242 90 -352t262 -110q355 0 355 462v863h194v-863q0 -325 -142.5 -478.5t-406.5 -153.5q-546 0 -546 632v863zM637 1554l-45 84l305 215q45 31 70 31q39 0 68 -40t32 -103z" />
<glyph unicode="&#xdb;" horiz-adv-x="1402" d="M154 1475h194v-863q0 -242 90 -352t262 -110q355 0 355 462v863h194v-863q0 -325 -142.5 -478.5t-406.5 -153.5q-546 0 -546 632v863zM1016 1614l-60 -60q-163 132 -254 177q-93 -44 -256 -177l-59 60q117 155 213 233q50 41 100 41t103 -41q96 -78 213 -233z" />
<glyph unicode="&#xdc;" horiz-adv-x="1402" d="M154 1475h194v-863q0 -242 90 -352t262 -110q355 0 355 462v863h194v-863q0 -325 -142.5 -478.5t-406.5 -153.5q-546 0 -546 632v863zM496 1624q-65 0 -85 24t-20 91q0 66 20 90t85 24q66 0 87 -23.5t21 -90.5t-21 -91t-87 -24zM901 1624q-65 0 -84.5 24t-19.5 91 q0 66 19.5 90t84.5 24q66 0 87.5 -23.5t21.5 -90.5q0 -66 -21.5 -90.5t-87.5 -24.5z" />
<glyph unicode="&#xdd;" horiz-adv-x="1249" d="M66 1475h202q46 -533 357 -830q310 293 356 830h203q-22 -281 -141 -538.5t-320 -432.5v-504h-195v504q-201 175 -319.5 432.5t-142.5 538.5zM571 1554l-45 84l305 215q45 31 70 31q39 0 68 -40t32 -103z" />
<glyph unicode="&#xde;" horiz-adv-x="1261" d="M1192 737q0 -246 -140 -365.5t-382 -119.5h-291v-252h-195v1475h195v-250h291q117 0 211.5 -28.5t164.5 -86.5t108 -153t38 -220zM670 1057h-291v-639h291q317 0 317 319q0 320 -317 320z" />
<glyph unicode="&#xdf;" horiz-adv-x="1275" d="M543 205q151 -74 276 -74q102 0 154.5 44t52.5 128q0 65 -40 117.5t-155 128.5q-120 77 -167.5 137t-47.5 148q0 50 22.5 95t55 80t65 69.5t55 77.5t22.5 89q0 68 -65.5 113t-184.5 45q-114 0 -175 -52.5t-61 -152.5v-1198h-184v1212q0 163 110 252.5t326 89.5 q188 0 307 -81t119 -199q0 -55 -23 -104.5t-56 -86.5t-66.5 -71.5t-56.5 -74t-23 -79.5q0 -60 33.5 -98t150.5 -119q126 -89 176.5 -165t50.5 -183q0 -140 -97 -226.5t-279 -86.5q-139 0 -258 36q-41 12 -57.5 32t-16.5 54q0 63 37 103z" />
<glyph unicode="&#xe0;" horiz-adv-x="1091" d="M926 0h-135l-31 162q-65 -86 -162.5 -134t-196.5 -48q-140 0 -226.5 75.5t-86.5 220.5q0 56 16.5 105.5t59.5 99t109 85t173 57.5t244 22h51v51q0 98 -45 151.5t-153 53.5q-167 0 -355 -82q-30 49 -30 105q0 33 14.5 50.5t50.5 29.5q142 49 318 49q76 0 136.5 -13 t102 -39t70.5 -59.5t45.5 -78.5t23.5 -93t7 -106v-664zM453 123q71 0 138 36t111 93q39 45 39 110v168h-43q-101 0 -177 -13.5t-121 -35.5t-73 -54t-38 -64t-10 -70q0 -81 49 -125.5t125 -44.5zM641 1243l-57 -78l-394 240q10 63 41 101t70 38q21 0 37.5 -10.5t46.5 -38.5z " />
<glyph unicode="&#xe1;" horiz-adv-x="1091" d="M926 0h-135l-31 162q-65 -86 -162.5 -134t-196.5 -48q-140 0 -226.5 75.5t-86.5 220.5q0 56 16.5 105.5t59.5 99t109 85t173 57.5t244 22h51v51q0 98 -45 151.5t-153 53.5q-167 0 -355 -82q-30 49 -30 105q0 33 14.5 50.5t50.5 29.5q142 49 318 49q76 0 136.5 -13 t102 -39t70.5 -59.5t45.5 -78.5t23.5 -93t7 -106v-664zM453 123q71 0 138 36t111 93q39 45 39 110v168h-43q-101 0 -177 -13.5t-121 -35.5t-73 -54t-38 -64t-10 -70q0 -81 49 -125.5t125 -44.5zM449 1165l-60 78l256 252q29 27 46.5 38t37.5 11q40 0 71.5 -37.5t41.5 -101.5 z" />
<glyph unicode="&#xe2;" horiz-adv-x="1091" d="M926 0h-135l-31 162q-65 -86 -162.5 -134t-196.5 -48q-140 0 -226.5 75.5t-86.5 220.5q0 56 16.5 105.5t59.5 99t109 85t173 57.5t244 22h51v51q0 98 -45 151.5t-153 53.5q-167 0 -355 -82q-30 49 -30 105q0 33 14.5 50.5t50.5 29.5q142 49 318 49q76 0 136.5 -13 t102 -39t70.5 -59.5t45.5 -78.5t23.5 -93t7 -106v-664zM453 123q71 0 138 36t111 93q39 45 39 110v168h-43q-101 0 -177 -13.5t-121 -35.5t-73 -54t-38 -64t-10 -70q0 -81 49 -125.5t125 -44.5zM817 1237l-65 -51q-133 123 -238 178q-98 -50 -240 -178l-63 51 q111 165 201 246q49 43 100 43q53 0 102 -43q77 -67 203 -246z" />
<glyph unicode="&#xe3;" horiz-adv-x="1091" d="M926 0h-135l-31 162q-65 -86 -162.5 -134t-196.5 -48q-140 0 -226.5 75.5t-86.5 220.5q0 56 16.5 105.5t59.5 99t109 85t173 57.5t244 22h51v51q0 98 -45 151.5t-153 53.5q-167 0 -355 -82q-30 49 -30 105q0 33 14.5 50.5t50.5 29.5q142 49 318 49q76 0 136.5 -13 t102 -39t70.5 -59.5t45.5 -78.5t23.5 -93t7 -106v-664zM453 123q71 0 138 36t111 93q39 45 39 110v168h-43q-101 0 -177 -13.5t-121 -35.5t-73 -54t-38 -64t-10 -70q0 -81 49 -125.5t125 -44.5zM236 1231l-95 31q29 117 95.5 174t148.5 57q44 0 91 -20t80 -43.5t70 -43.5 t62 -20q83 0 135 125l95 -33q-32 -120 -98 -177.5t-150 -57.5q-43 0 -89 20t-78.5 44.5t-70 44.5t-65.5 20q-84 0 -131 -121z" />
<glyph unicode="&#xe4;" horiz-adv-x="1091" d="M926 0h-135l-31 162q-65 -86 -162.5 -134t-196.5 -48q-140 0 -226.5 75.5t-86.5 220.5q0 56 16.5 105.5t59.5 99t109 85t173 57.5t244 22h51v51q0 98 -45 151.5t-153 53.5q-167 0 -355 -82q-30 49 -30 105q0 33 14.5 50.5t50.5 29.5q142 49 318 49q76 0 136.5 -13 t102 -39t70.5 -59.5t45.5 -78.5t23.5 -93t7 -106v-664zM453 123q71 0 138 36t111 93q39 45 39 110v168h-43q-101 0 -177 -13.5t-121 -35.5t-73 -54t-38 -64t-10 -70q0 -81 49 -125.5t125 -44.5zM305 1251q-66 0 -86 23t-20 90q0 66 20.5 90.5t85.5 24.5q66 0 86.5 -23.5 t20.5 -91.5q0 -66 -20.5 -89.5t-86.5 -23.5zM711 1251q-66 0 -86.5 23.5t-20.5 89.5t21 90.5t86 24.5q66 0 86 -23.5t20 -91.5q0 -67 -20 -90t-86 -23z" />
<glyph unicode="&#xe5;" horiz-adv-x="1091" d="M926 0h-135l-31 162q-65 -86 -162.5 -134t-196.5 -48q-140 0 -226.5 75.5t-86.5 220.5q0 56 16.5 105.5t59.5 99t109 85t173 57.5t244 22h51v51q0 98 -45 151.5t-153 53.5q-167 0 -355 -82q-30 49 -30 105q0 33 14.5 50.5t50.5 29.5q142 49 318 49q76 0 136.5 -13 t102 -39t70.5 -59.5t45.5 -78.5t23.5 -93t7 -106v-664zM453 123q71 0 138 36t111 93q39 45 39 110v168h-43q-101 0 -177 -13.5t-121 -35.5t-73 -54t-38 -64t-10 -70q0 -81 49 -125.5t125 -44.5zM516 1163q-87 0 -149 56t-62 151q0 96 61.5 152.5t149.5 56.5t150.5 -56.5 t62.5 -152.5q0 -94 -62.5 -150.5t-150.5 -56.5zM516 1245q50 0 84.5 31.5t34.5 93.5q0 63 -34.5 95t-84.5 32q-49 0 -83 -32t-34 -95q0 -62 34 -93.5t83 -31.5z" />
<glyph unicode="&#xe6;" horiz-adv-x="1710" d="M541 1053q239 0 313 -168q114 166 360 166q187 0 287.5 -84.5t100.5 -221.5q0 -140 -112 -208t-351 -68q-94 0 -211 12q4 -85 21.5 -147t45 -100.5t68.5 -61t84.5 -31t99.5 -8.5q142 0 305 82q29 -56 29 -104q0 -33 -12.5 -50t-50.5 -32q-118 -47 -273 -47 q-306 0 -418 213q-63 -107 -168 -161t-237 -54q-157 0 -245.5 73t-88.5 217q0 51 14.5 96.5t53 90.5t98 77t156.5 52t223 20q38 0 108 -4v94q0 98 -45 151.5t-153 53.5q-167 0 -355 -82q-30 49 -30 105q0 33 14.5 50.5t50.5 29.5q142 49 318 49zM453 123q67 0 137.5 32.5 t114.5 94.5q36 39 36 112v134q-33 2 -90 2q-372 0 -372 -211q0 -77 48.5 -120.5t125.5 -43.5zM1196 911q-56 0 -99 -15t-80 -50t-59.5 -100t-27.5 -158q126 -8 186 -8q159 1 229 44.5t70 125.5q0 76 -56 118.5t-163 42.5z" />
<glyph unicode="&#xe7;" horiz-adv-x="991" d="M367 -317q71 -33 135 -33q57 0 91 25t34 71q0 82 -115 82q-30 0 -70 -6l-22 26l33 146q-160 31 -252 158.5t-92 363.5q0 142 35.5 247.5t99.5 167t145.5 91t181.5 29.5q147 0 246 -35q36 -12 50 -30t14 -52q0 -50 -29 -103q-142 68 -260 68q-65 0 -115 -18.5t-90.5 -60.5 t-62 -118.5t-21.5 -185.5t21.5 -186t62 -119t90.5 -60t115 -18q114 0 276 76q31 -51 31 -103q0 -34 -12.5 -51t-50.5 -30q-122 -43 -265 -43h-10l-16 -80q16 2 47 2q79 0 132.5 -41t53.5 -117q0 -96 -77 -151.5t-197 -55.5q-62 0 -127 19q-39 12 -39 45q0 40 29 80z" />
<glyph unicode="&#xe8;" horiz-adv-x="1089" d="M553 438q-115 0 -250 29q5 -81 23.5 -140.5t46 -96.5t68.5 -59t84 -30t98 -8q140 0 305 82q28 -54 28 -104q0 -33 -12.5 -50t-50.5 -32q-121 -47 -281 -47q-503 0 -503 538q0 140 35.5 244t99.5 165.5t145.5 91.5t181.5 30q197 0 303.5 -86t106.5 -230q0 -153 -105 -225 t-323 -72zM571 911q-118 0 -188 -74t-80 -257q130 -19 207 -19q152 0 217.5 42.5t65.5 137.5q0 82 -57.5 126t-164.5 44zM698 1243l-57 -78l-393 240q10 64 40.5 101.5t69.5 37.5q21 0 37.5 -10.5t46.5 -38.5z" />
<glyph unicode="&#xe9;" horiz-adv-x="1089" d="M553 438q-115 0 -250 29q5 -81 23.5 -140.5t46 -96.5t68.5 -59t84 -30t98 -8q140 0 305 82q28 -54 28 -104q0 -33 -12.5 -50t-50.5 -32q-121 -47 -281 -47q-503 0 -503 538q0 140 35.5 244t99.5 165.5t145.5 91.5t181.5 30q197 0 303.5 -86t106.5 -230q0 -153 -105 -225 t-323 -72zM571 911q-118 0 -188 -74t-80 -257q130 -19 207 -19q152 0 217.5 42.5t65.5 137.5q0 82 -57.5 126t-164.5 44zM508 1165l-59 78l256 252q29 28 46 38.5t37 10.5q40 0 71.5 -37.5t41.5 -101.5z" />
<glyph unicode="&#xea;" horiz-adv-x="1089" d="M553 438q-115 0 -250 29q5 -81 23.5 -140.5t46 -96.5t68.5 -59t84 -30t98 -8q140 0 305 82q28 -54 28 -104q0 -33 -12.5 -50t-50.5 -32q-121 -47 -281 -47q-503 0 -503 538q0 140 35.5 244t99.5 165.5t145.5 91.5t181.5 30q197 0 303.5 -86t106.5 -230q0 -153 -105 -225 t-323 -72zM571 911q-118 0 -188 -74t-80 -257q130 -19 207 -19q152 0 217.5 42.5t65.5 137.5q0 82 -57.5 126t-164.5 44zM881 1237l-66 -51q-134 124 -237 178q-98 -50 -240 -178l-64 51q111 165 201 246q49 43 100 43q54 0 103 -43q77 -67 203 -246z" />
<glyph unicode="&#xeb;" horiz-adv-x="1089" d="M553 438q-115 0 -250 29q5 -81 23.5 -140.5t46 -96.5t68.5 -59t84 -30t98 -8q140 0 305 82q28 -54 28 -104q0 -33 -12.5 -50t-50.5 -32q-121 -47 -281 -47q-503 0 -503 538q0 140 35.5 244t99.5 165.5t145.5 91.5t181.5 30q197 0 303.5 -86t106.5 -230q0 -153 -105 -225 t-323 -72zM571 911q-118 0 -188 -74t-80 -257q130 -19 207 -19q152 0 217.5 42.5t65.5 137.5q0 82 -57.5 126t-164.5 44zM360 1251q-66 0 -86 23t-20 90q0 66 20.5 90.5t85.5 24.5q66 0 86.5 -23.5t20.5 -91.5q0 -66 -20.5 -89.5t-86.5 -23.5zM766 1251q-66 0 -86.5 23.5 t-20.5 89.5t21 90.5t86 24.5q66 0 86 -23.5t20 -91.5q0 -67 -20 -90t-86 -23z" />
<glyph unicode="&#xec;" horiz-adv-x="516" d="M350 0h-184v1032h184v-1032zM377 1243l-58 -78l-393 240q10 63 41 101t70 38q21 0 37.5 -10.5t46.5 -38.5z" />
<glyph unicode="&#xed;" horiz-adv-x="516" d="M350 0h-184v1032h184v-1032zM199 1165l-60 78l256 252q29 27 46.5 38t37.5 11q40 0 71.5 -37.5t41.5 -101.5z" />
<glyph unicode="&#xee;" horiz-adv-x="516" d="M350 0h-184v1032h184v-1032zM561 1237l-63 -51q-142 128 -240 178q-102 -53 -240 -178l-63 51q126 179 203 246q49 43 100 43t100 -43q91 -79 203 -246z" />
<glyph unicode="&#xef;" horiz-adv-x="516" d="M113 1251q-54 0 -74.5 24.5t-20.5 88.5t21 89.5t74 25.5q55 0 75.5 -24.5t20.5 -90.5q0 -65 -20.5 -89t-75.5 -24zM401 1251q-55 0 -74.5 24t-19.5 89q0 64 20 89.5t74 25.5t75.5 -25t21.5 -90q0 -64 -21.5 -88.5t-75.5 -24.5zM350 0h-184v1032h184v-1032z" />
<glyph unicode="&#xf0;" horiz-adv-x="1134" d="M559 -18q-78 0 -144 17t-123 56.5t-97 99t-63 148.5t-23 201q0 139 31 242t86 161.5t123.5 86.5t150.5 28q103 0 184 -46t131 -112q-36 203 -248 371l-340 -131l-34 86l282 110q-125 81 -309 158l108 98q212 -92 347 -184l266 105l33 -88l-209 -82q162 -133 243.5 -311 t81.5 -425q0 -133 -23.5 -235t-65 -168.5t-102.5 -108.5t-130.5 -59.5t-155.5 -17.5zM559 129q50 0 89.5 9.5t77 37t62 72t39.5 118.5t15 173q0 161 -85.5 257.5t-209.5 96.5q-56 0 -98 -17.5t-76 -59.5t-52 -118t-18 -186q0 -109 19.5 -185.5t55.5 -118.5t80 -60.5 t101 -18.5z" />
<glyph unicode="&#xf1;" horiz-adv-x="1171" d="M1006 0h-187v688q0 199 -180 199q-75 0 -142.5 -34t-109.5 -89q-37 -47 -37 -113v-651h-184v1032h135l33 -155q67 82 162.5 127t189.5 45q163 0 241.5 -85.5t78.5 -240.5v-723zM281 1231l-95 31q29 117 95.5 174t148.5 57q44 0 91 -20t80 -43.5t70 -43.5t62 -20 q83 0 135 125l95 -33q-32 -120 -98 -177.5t-150 -57.5q-43 0 -89 20t-78.5 44.5t-70 44.5t-65.5 20q-84 0 -131 -121z" />
<glyph unicode="&#xf2;" horiz-adv-x="1144" d="M571 -18q-100 0 -181.5 29t-145.5 91t-99.5 168t-35.5 250q0 140 35.5 244t99.5 165.5t145.5 91.5t181.5 30q101 0 183 -29t146.5 -90t100 -165.5t35.5 -246.5q0 -141 -36 -247t-101 -168.5t-147 -92.5t-181 -30zM571 129q60 0 106 17.5t85 59.5t59.5 121.5t20.5 192.5 t-20.5 191t-59.5 119t-85 58t-106 17q-59 0 -104.5 -17t-84 -58t-59 -119t-20.5 -191t20.5 -192.5t59 -121.5t84 -59.5t104.5 -17.5zM686 1243l-57 -78l-393 240q10 64 40.5 101.5t69.5 37.5q21 0 37.5 -10.5t46.5 -38.5z" />
<glyph unicode="&#xf3;" horiz-adv-x="1144" d="M571 -18q-100 0 -181.5 29t-145.5 91t-99.5 168t-35.5 250q0 140 35.5 244t99.5 165.5t145.5 91.5t181.5 30q101 0 183 -29t146.5 -90t100 -165.5t35.5 -246.5q0 -141 -36 -247t-101 -168.5t-147 -92.5t-181 -30zM571 129q60 0 106 17.5t85 59.5t59.5 121.5t20.5 192.5 t-20.5 191t-59.5 119t-85 58t-106 17q-59 0 -104.5 -17t-84 -58t-59 -119t-20.5 -191t20.5 -192.5t59 -121.5t84 -59.5t104.5 -17.5zM498 1165l-60 78l256 252q29 27 46.5 38t37.5 11q40 0 71.5 -37.5t41.5 -101.5z" />
<glyph unicode="&#xf4;" horiz-adv-x="1144" d="M571 -18q-100 0 -181.5 29t-145.5 91t-99.5 168t-35.5 250q0 140 35.5 244t99.5 165.5t145.5 91.5t181.5 30q101 0 183 -29t146.5 -90t100 -165.5t35.5 -246.5q0 -141 -36 -247t-101 -168.5t-147 -92.5t-181 -30zM571 129q60 0 106 17.5t85 59.5t59.5 121.5t20.5 192.5 t-20.5 191t-59.5 119t-85 58t-106 17q-59 0 -104.5 -17t-84 -58t-59 -119t-20.5 -191t20.5 -192.5t59 -121.5t84 -59.5t104.5 -17.5zM877 1237l-66 -51q-133 123 -238 178q-96 -49 -239 -178l-64 51q111 165 201 246q49 43 100 43q54 0 103 -43q77 -67 203 -246z" />
<glyph unicode="&#xf5;" horiz-adv-x="1144" d="M571 -18q-100 0 -181.5 29t-145.5 91t-99.5 168t-35.5 250q0 140 35.5 244t99.5 165.5t145.5 91.5t181.5 30q101 0 183 -29t146.5 -90t100 -165.5t35.5 -246.5q0 -141 -36 -247t-101 -168.5t-147 -92.5t-181 -30zM571 129q60 0 106 17.5t85 59.5t59.5 121.5t20.5 192.5 t-20.5 191t-59.5 119t-85 58t-106 17q-59 0 -104.5 -17t-84 -58t-59 -119t-20.5 -191t20.5 -192.5t59 -121.5t84 -59.5t104.5 -17.5zM283 1231l-95 31q29 117 95.5 174t148.5 57q44 0 91 -20t80 -43.5t70 -43.5t62 -20q83 0 135 125l95 -33q-32 -120 -98 -177.5t-150 -57.5 q-43 0 -89 20t-78.5 44.5t-70 44.5t-65.5 20q-84 0 -131 -121z" />
<glyph unicode="&#xf6;" horiz-adv-x="1144" d="M571 -18q-100 0 -181.5 29t-145.5 91t-99.5 168t-35.5 250q0 140 35.5 244t99.5 165.5t145.5 91.5t181.5 30q101 0 183 -29t146.5 -90t100 -165.5t35.5 -246.5q0 -141 -36 -247t-101 -168.5t-147 -92.5t-181 -30zM571 129q60 0 106 17.5t85 59.5t59.5 121.5t20.5 192.5 t-20.5 191t-59.5 119t-85 58t-106 17q-59 0 -104.5 -17t-84 -58t-59 -119t-20.5 -191t20.5 -192.5t59 -121.5t84 -59.5t104.5 -17.5zM369 1251q-66 0 -86.5 23.5t-20.5 89.5t21 90.5t86 24.5q66 0 86 -23.5t20 -91.5q0 -67 -20 -90t-86 -23zM774 1251q-66 0 -86 23t-20 90 q0 66 20.5 90.5t85.5 24.5q66 0 86.5 -23.5t20.5 -91.5q0 -66 -20.5 -89.5t-86.5 -23.5z" />
<glyph unicode="&#xf7;" horiz-adv-x="1026" d="M930 580h-834v141h834v-141zM514 197q-57 0 -76.5 23.5t-19.5 84.5q0 60 20 85.5t76 25.5t77 -25.5t21 -85.5t-21 -84t-77 -24zM514 883q-57 0 -76.5 23.5t-19.5 84.5q0 59 20 85t76 26t77 -25.5t21 -85.5t-21 -84t-77 -24z" />
<glyph unicode="&#xf8;" horiz-adv-x="1148" d="M201 -111l-80 54l115 168q-125 138 -125 409q0 140 35 244t99 165.5t145.5 91.5t182.5 30q155 0 265 -68l110 160l80 -53l-117 -168q125 -135 125 -402q0 -142 -36 -247.5t-100 -168t-146 -92.5t-181 -30q-157 0 -262 67zM299 514q0 -163 39 -258l407 592q-62 57 -172 57 q-60 0 -106.5 -18t-86 -60t-60.5 -121t-21 -192zM573 129q277 0 277 399q0 156 -39 248l-408 -592q63 -55 170 -55z" />
<glyph unicode="&#xf9;" horiz-adv-x="1159" d="M166 1032h184v-686q0 -201 182 -201q75 0 140 33.5t106 89.5q37 47 37 115v649h184v-1032h-135l-33 154q-67 -81 -161 -125.5t-187 -44.5q-162 0 -239.5 86t-77.5 241v721zM674 1243l-58 -78l-393 240q10 63 41 101t70 38q21 0 37.5 -10.5t46.5 -38.5z" />
<glyph unicode="&#xfa;" horiz-adv-x="1159" d="M166 1032h184v-686q0 -201 182 -201q75 0 140 33.5t106 89.5q37 47 37 115v649h184v-1032h-135l-33 154q-67 -81 -161 -125.5t-187 -44.5q-162 0 -239.5 86t-77.5 241v721zM543 1165l-60 78l256 252q29 27 46.5 38t37.5 11q40 0 71.5 -37.5t41.5 -101.5z" />
<glyph unicode="&#xfb;" horiz-adv-x="1159" d="M166 1032h184v-686q0 -201 182 -201q75 0 140 33.5t106 89.5q37 47 37 115v649h184v-1032h-135l-33 154q-67 -81 -161 -125.5t-187 -44.5q-162 0 -239.5 86t-77.5 241v721zM887 1237l-66 -51q-134 124 -237 178q-98 -50 -240 -178l-63 51q112 168 200 246q49 43 101 43 q53 0 102 -43q77 -67 203 -246z" />
<glyph unicode="&#xfc;" horiz-adv-x="1159" d="M166 1032h184v-686q0 -201 182 -201q75 0 140 33.5t106 89.5q37 47 37 115v649h184v-1032h-135l-33 154q-67 -81 -161 -125.5t-187 -44.5q-162 0 -239.5 86t-77.5 241v721zM383 1251q-66 0 -86.5 23.5t-20.5 89.5t21 90.5t86 24.5q66 0 86 -23.5t20 -91.5q0 -67 -20 -90 t-86 -23zM788 1251q-66 0 -86 23t-20 90q0 66 20.5 90.5t85.5 24.5q66 0 86.5 -23.5t20.5 -91.5q0 -66 -20.5 -89.5t-86.5 -23.5z" />
<glyph unicode="&#xfd;" horiz-adv-x="1019" d="M752 1032h194q-13 -226 -65.5 -433t-139 -385t-189 -328t-233.5 -296q-63 -71 -114 -71q-80 0 -131 125q223 157 366 356q-164 186 -254 439t-110 593h196q14 -305 70.5 -520.5t177.5 -390.5q211 363 232 911zM479 1165l-59 78l256 252q29 27 46.5 38t37.5 11 q40 0 71 -37.5t41 -101.5z" />
<glyph unicode="&#xfe;" horiz-adv-x="1161" d="M1053 516q0 -119 -20.5 -211t-56 -152t-86.5 -98.5t-108 -54.5t-125 -16q-85 0 -168 37.5t-139 99.5v-608h-184v2023h184v-633q57 68 142.5 108t171.5 40q65 0 121 -16t106 -55t85.5 -99t56 -153t20.5 -212zM860 518q0 94 -13 163.5t-34.5 111.5t-54 67t-66 34t-76.5 9 q-72 0 -133.5 -35t-99.5 -94q-35 -55 -35 -143v-228q0 -93 35 -143q38 -59 99.5 -94t133.5 -35q55 0 95 15.5t76 55.5t54.5 119.5t18.5 196.5z" />
<glyph unicode="&#xff;" horiz-adv-x="1019" d="M752 1032h194q-13 -226 -65.5 -433.5t-138.5 -385.5t-189 -328t-234 -295q-63 -71 -114 -71q-80 0 -131 125q223 157 366 356q-164 186 -254 439t-110 593h196q14 -305 70.5 -520.5t177.5 -390.5q211 363 232 911zM309 1251q-66 0 -86 23t-20 90q0 66 20.5 90.5 t85.5 24.5q66 0 86.5 -23.5t20.5 -91.5q0 -66 -20.5 -89.5t-86.5 -23.5zM715 1251q-66 0 -86.5 23.5t-20.5 89.5t21 90.5t86 24.5q66 0 86 -23.5t20 -91.5q0 -67 -20 -90t-86 -23z" />
<glyph unicode="&#x152;" horiz-adv-x="1933" d="M92 739q0 159 31 285t88 213.5t140 145.5t184.5 85t224.5 27q119 0 233 -20h854v-160h-659v-469h520v-160h-520v-526h674v-160h-869q-98 -20 -233 -20q-154 0 -275 44t-210 134.5t-136 237t-47 343.5zM774 150q123 0 219 22v1131q-101 22 -219 22q-237 0 -357 -140 t-120 -446q0 -305 120.5 -447t356.5 -142z" />
<glyph unicode="&#x153;" horiz-adv-x="1814" d="M565 -18q-77 0 -143.5 17.5t-125 58t-99.5 102t-64.5 153t-23.5 207.5q0 139 36 243.5t100 166t144.5 91.5t177.5 30q119 0 214.5 -49.5t154.5 -147.5q112 197 379 197q186 0 288.5 -86t102.5 -226q0 -158 -105.5 -226.5t-334.5 -68.5q-97 0 -238 23q5 -81 23.5 -140.5 t46 -96.5t68.5 -59t84 -30t98 -8q142 0 305 82q28 -54 28 -104q0 -33 -12.5 -50t-48.5 -32q-121 -47 -274 -47q-295 0 -410 198q-60 -99 -156 -148.5t-215 -49.5zM571 129q60 0 106 17.5t85 59.5t59.5 121.5t20.5 192.5t-20.5 191t-59.5 119t-85 58t-106 17 q-59 0 -104.5 -17t-84 -58t-59 -119t-20.5 -191t20.5 -192.5t59 -121.5t84 -59.5t104.5 -17.5zM1298 911q-57 0 -101 -15.5t-81.5 -52t-60 -104t-27.5 -164.5q126 -18 215 -18q146 0 210.5 44t64.5 140q0 82 -57 126t-163 44z" />
<glyph unicode="&#x178;" horiz-adv-x="1249" d="M66 1475h202q46 -533 357 -830q310 293 356 830h203q-22 -281 -141 -538.5t-320 -432.5v-504h-195v504q-201 175 -319.5 432.5t-142.5 538.5zM420 1624q-65 0 -85 24t-20 91q0 66 20 90t85 24q66 0 87 -23.5t21 -90.5t-21 -91t-87 -24zM825 1624q-65 0 -84.5 24t-19.5 91 q0 66 19.5 90t84.5 24q66 0 87.5 -23.5t21.5 -90.5q0 -66 -21.5 -90.5t-87.5 -24.5z" />
<glyph unicode="&#x2c6;" horiz-adv-x="909" d="M758 1237l-66 -51q-134 124 -237 178q-98 -50 -240 -178l-63 51q112 168 200 246q49 43 101 43q53 0 102 -43q77 -67 203 -246z" />
<glyph unicode="&#x2dc;" horiz-adv-x="792" d="M102 1231l-94 31q29 117 95.5 174t148.5 57q44 0 91 -20t80 -43.5t70 -43.5t62 -20q83 0 135 125l94 -33q-32 -120 -98 -177.5t-149 -57.5q-54 0 -112.5 32.5t-108 64.5t-83.5 32q-84 0 -131 -121z" />
<glyph unicode="&#x2000;" horiz-adv-x="966" />
<glyph unicode="&#x2001;" horiz-adv-x="1933" />
<glyph unicode="&#x2002;" horiz-adv-x="966" />
<glyph unicode="&#x2003;" horiz-adv-x="1933" />
<glyph unicode="&#x2004;" horiz-adv-x="644" />
<glyph unicode="&#x2005;" horiz-adv-x="483" />
<glyph unicode="&#x2006;" horiz-adv-x="322" />
<glyph unicode="&#x2007;" horiz-adv-x="322" />
<glyph unicode="&#x2008;" horiz-adv-x="241" />
<glyph unicode="&#x2009;" horiz-adv-x="386" />
<glyph unicode="&#x200a;" horiz-adv-x="107" />
<glyph unicode="&#x2010;" horiz-adv-x="745" d="M96 483v152h551v-152h-551z" />
<glyph unicode="&#x2011;" horiz-adv-x="745" d="M96 483v152h551v-152h-551z" />
<glyph unicode="&#x2012;" horiz-adv-x="745" d="M96 483v152h551v-152h-551z" />
<glyph unicode="&#x2013;" horiz-adv-x="1087" d="M96 483v150h893v-150h-893z" />
<glyph unicode="&#x2014;" horiz-adv-x="2148" d="M96 483v150h1954v-150h-1954z" />
<glyph unicode="&#x2018;" horiz-adv-x="401" d="M242 1520l84 -52q-86 -177 -86 -323q0 -74 22 -148q-66 -28 -131 -28q-49 0 -67.5 25.5t-18.5 78.5q0 190 197 447z" />
<glyph unicode="&#x2019;" horiz-adv-x="401" d="M139 963l-84 51q86 177 86 323q0 74 -22 148q66 28 131 28q49 0 67.5 -25.5t18.5 -78.5q0 -189 -197 -446z" />
<glyph unicode="&#x201a;" horiz-adv-x="401" d="M139 -303l-84 51q86 177 86 324q0 73 -22 147q68 29 131 29q48 0 67 -26t19 -79q0 -189 -197 -446z" />
<glyph unicode="&#x201c;" horiz-adv-x="706" d="M555 1520l76 -45q-86 -177 -86 -324q0 -73 22 -147q-68 -29 -125 -29q-45 0 -63.5 23.5t-18.5 74.5q0 189 195 447zM240 1520l75 -45q-86 -177 -86 -324q0 -70 23 -147q-68 -29 -125 -29q-45 0 -63.5 23.5t-18.5 74.5q0 189 195 447z" />
<glyph unicode="&#x201d;" horiz-adv-x="706" d="M131 969l-76 45q86 177 86 323q0 74 -22 148q66 28 125 28q45 0 63.5 -23.5t18.5 -74.5q0 -188 -195 -446zM446 969l-75 45q86 177 86 323q0 71 -23 148q66 28 125 28q45 0 63.5 -23.5t18.5 -74.5q0 -188 -195 -446z" />
<glyph unicode="&#x201e;" horiz-adv-x="706" d="M131 -297l-76 45q86 177 86 324q0 73 -22 147q68 29 125 29q45 0 63.5 -23.5t18.5 -74.5q0 -189 -195 -447zM446 -297l-75 45q86 177 86 324q0 70 -23 147q68 29 125 29q45 0 63.5 -23.5t18.5 -74.5q0 -189 -195 -447z" />
<glyph unicode="&#x2022;" horiz-adv-x="710" d="M354 492q-94 0 -135 43.5t-41 144.5t41 144.5t135 43.5q95 0 136.5 -43.5t41.5 -144.5t-41.5 -144.5t-136.5 -43.5z" />
<glyph unicode="&#x2026;" horiz-adv-x="1329" d="M229 -14q-66 0 -89 29t-23 102q0 70 23.5 100.5t88.5 30.5t90 -29.5t25 -101.5t-25 -101.5t-90 -29.5zM664 -14q-66 0 -89.5 29t-23.5 102q0 69 24 100t89 31t89.5 -29.5t24.5 -101.5t-24.5 -101.5t-89.5 -29.5zM1098 -14q-65 0 -89 29.5t-24 101.5q0 69 24.5 100 t88.5 31q65 0 89.5 -29.5t24.5 -101.5t-24.5 -101.5t-89.5 -29.5z" />
<glyph unicode="&#x202f;" horiz-adv-x="386" />
<glyph unicode="&#x2039;" horiz-adv-x="655" d="M584 100l-78 -65q-281 227 -414 442v78q137 221 414 442l78 -63q-216 -233 -297 -418q79 -182 297 -416z" />
<glyph unicode="&#x203a;" horiz-adv-x="655" d="M152 35l-80 65q215 228 297 416q-83 192 -297 418l80 63q274 -221 411 -442v-78q-130 -215 -411 -442z" />
<glyph unicode="&#x205f;" horiz-adv-x="483" />
<glyph unicode="&#x20ac;" horiz-adv-x="1187" d="M1051 1235q-163 88 -332 88q-304 0 -365 -371h564l-29 -125h-547q-4 -58 -4 -88q0 -38 4 -100h504l-31 -125h-459q64 -362 363 -362q181 0 350 94q41 -61 41 -129q0 -34 -19 -55.5t-67 -34.5q-159 -47 -319 -47q-226 0 -366.5 130.5t-180.5 403.5h-146v125h133 q-2 33 -2 100q0 16 1 45t1 43h-133v125h144q39 278 181.5 410.5t371.5 132.5q160 0 297 -41q86 -23 86 -90q0 -68 -41 -129z" />
<glyph unicode="&#x2122;" horiz-adv-x="1589" d="M1135 897h-88q-48 253 -181 449q-57 -293 -57 -609h-143q0 401 88 746h129q57 -71 113.5 -174.5t93.5 -204.5q36 102 92.5 205.5t115.5 173.5h129q43 -169 66 -367.5t23 -378.5h-144q0 313 -57 606q-136 -198 -180 -446zM623 1368h-207v-631h-144v631h-206v115h557v-115z " />
<glyph unicode="&#x25fc;" horiz-adv-x="1034" d="M0 1034h1034v-1034h-1034v1034z" />
<glyph unicode="&#xfb01;" horiz-adv-x="1189" d="M946 1331q-144 72 -303 72q-248 0 -248 -205v-166h629v-1032h-184v893h-445v-893h-186v893h-150v113l150 20v186q0 160 116.5 251t321.5 91q163 0 266 -36q37 -11 49.5 -29.5t12.5 -52.5q0 -52 -29 -105z" />
<glyph unicode="&#xfb02;" horiz-adv-x="1214" d="M1049 0h-187v1352q-99 51 -237 51q-113 0 -171.5 -52.5t-58.5 -152.5v-166h285v-139h-285v-893h-186v893h-150v113l150 20v186q0 161 111 251.5t311 90.5q208 0 418 -98v-1456z" />
</font>
</defs>
</svg>
